<svg width="270" height="113" fill="none" xmlns="http://www.w3.org/2000/svg"><mask id="a" style="mask-type:luminance" maskUnits="userSpaceOnUse" x="69" y="0" width="132" height="59"><path d="M69 .214h132v58.12H69V.213z" fill="#fff"/></mask><g mask="url(#a)"><path d="M129.656 28.568c0 1.547.886 3.979 2.761 6.406.224.339.448.557.776.89v3.646c-1.219-.661-3.87-2.099-6.964-2.765.443 1.547-.109 2.875-1.88 2.875-1.328 0-2.323-.771-3.651-.771-1.432 0-2.318.77-2.318 1.656 0 .886.115 1.88.771 2.985-.219 0-3.094-.995-3.094-2.985 0-1.88.886-3.203 2.214-3.979-7.188.995-12.938 4.422-18.13 8.182.218 1.657.77 3.203 1.546 4.417.219-2.542 1.662-5.526 5.084-5.526 2.875 0 5.75.885 6.411 5.198-.771-.333-1.651-.662-2.875-.662-.989 0-2.099 1.433-2.099 2.537 0 2.104 1.995 4.203 5.308 4.203 8.51 0 10.948-6.411 10.833-10.281h1.328c0 8.843-6.411 12.604-12.161 12.604-8.511 0-13.485-4.755-15.032-11.276-7.302 5.417-13.708 11.052-21.78 11.052-3.537 0-6.855-1.323-6.855-5.307 0-3.974 2.432-4.86 4.422-4.86 2.323 0 4.094 1.657 4.094 3.203 0 1.88-1.88 2.657-2.99 2.214.557-.557.776-1.104.776-2.104 0-.88-1.213-1.985-2.323-1.985-1.984 0-2.984 1.547-2.984 3.532 0 2.547 1.88 3.76 4.531 3.76 5.64 0 7.516-11.495 13.266-11.495 2.765 0 3.322 2.1 3.322 2.875 0 .662-.229 2.318-.229 2.318 2.105-1.432 4.204-3.094 6.526-4.865-.109-.88-.218-1.765-.218-2.76 0-.661 0-1.438.109-2.099-5.088.552-7.406-3.099-7.406-5.526 0-2.432 1.547-4.203 3.979-4.203 1.547 0 2.76 1.437 2.76 2.875 0 1.104-.437 1.88-1.765 1.88-.995 0-1.547-.885-1.547-1.437 0-1.329 1.213-1.22 1.213-1.662-.328-.437-.88-.219-1.328-.219-.88 0-2.208.995-2.208 2.542 0 3.203 3.208 4.755 6.52 4.531 1.553-8.067 8.845-12.713 15.923-12.713 5.744 0 10.5 2.323 14.703 6.083a6.711 6.711 0 01-1-3.536c0-1.771.666-3.209 2.213-3.209 1.99 0 2.985 1.328 3.427 2.76-1.989-.66-3.979-.327-3.979 1zM87.312 50.234c-1.213 0-2.65 2.1-4.307 4.422 1.11-.552 3.87-1.99 5.302-3.208 0-.552-.11-1.214-.995-1.214zm13.714-11.385c-.667 1.438-.995 2.875-.995 4.089 3.646-2.542 7.625-5.089 12.271-6.745-3.646.661-7.963 1.77-11.276 2.656zm16.141-11.61c.771.886.88.995.88 1.99 0 1.662-.88 2.766-3.422 2.766-1.224 0-2.437-.443-3.432-.443-4.198 0-7.407 2.766-9.287 5.75 4.313-1.219 10.505-2.984 17.912-2.984-.443-.334-.667-.89-.667-1.662 0-.994.448-1.765 1.771-2.323-.109 1.995 1.104 2.766 3.536 2.766 1.886 0 2.438.661 2.438 1.547l-.224.666c2.323.662 4.864 1.542 5.969 1.99C127.333 31 122.25 27.35 117.167 27.24zm15.474-7.072c-.224-.886-.886-2.875-1.99-2.875-2.542 0-4.865 1.765-7.406 1.765-1.88 0-4.313-1.432-4.313-3.536 0-.886.667-1.432 1.547-1.547-.109.333-.219.661-.219.995 0 .661.438 1.219 1.105 1.219 2.208 0 3.979-1.662 6.187-1.662.662 0 1.328.224 1.99.443-1.323-.995-3.203-1.99-4.86-2.323-5.531-.886-12.713-3.87-11.937-9.615.219-1.88 1.765-2.765 3.094-2.541-.662.552-1.329.99-1.329 1.88 0 3.203 4.089 3.312 6.412 3.312 2.432 0 7.521-.552 7.521 3.318 0 1.328-1.11 2.323-2.323 2.542 3.318 1.656 6.63 3.87 7.406 7.74l-.885.885zM193 56.979c-8.073 0-14.479-5.64-21.776-11.057-1.443 6.52-6.521 11.276-15.042 11.276-5.635 0-12.156-3.76-12.156-12.604h1.328c0 3.87 2.427 10.281 10.828 10.281 3.323 0 5.313-2.099 5.313-4.203 0-1.1-1.11-2.537-2.099-2.537-1.219 0-2.104.329-2.875.662.661-4.313 3.536-5.198 6.406-5.198 3.542 0 4.87 2.984 5.089 5.531.776-1.219 1.328-2.765 1.547-4.422-5.193-3.76-10.943-7.187-18.125-8.182 1.317.776 2.208 2.099 2.208 3.98 0 1.989-2.875 2.984-3.099 2.984.661-1.105.776-2.1.776-2.985 0-.885-.776-1.656-2.323-1.656-1.328 0-2.318.77-3.646.77-1.771 0-2.323-1.327-1.88-2.874-3.094.666-5.75 2.104-6.964 2.765v-3.645l.881-.886c1.88-2.432 2.656-4.864 2.656-6.411 0-1.328-1.99-1.662-3.979-.995.442-1.438 1.437-2.766 3.427-2.766 1.547 0 2.208 1.438 2.208 3.209a6.75 6.75 0 01-.989 3.536c4.307-3.76 8.947-6.083 14.697-6.083 7.188 0 14.37 4.646 15.922 12.713 3.313.224 6.521-1.323 6.521-4.53 0-1.548-1.219-2.543-2.208-2.543-.448 0-1-.218-1.328.22 0 .442 1.213.332 1.213 1.66a1.48 1.48 0 01-1.547 1.438c-1.328 0-1.77-.776-1.77-1.88 0-1.438 1.218-2.875 2.765-2.875 2.432 0 3.979 1.77 3.979 4.203 0 2.432-2.323 6.078-7.406 5.526.109.661.109 1.438.109 2.099 0 .995 0 1.88-.109 2.766a161.88 161.88 0 006.412 4.864s-.219-1.661-.219-2.323c0-.77.661-2.875 3.318-2.875 5.744 0 7.625 11.495 13.26 11.495 2.651 0 4.536-1.213 4.536-3.755 0-1.99-1-3.537-2.989-3.537-1.104 0-2.318 1.105-2.318 1.985 0 1 .219 1.552.771 2.104-1.104.443-2.984-.333-2.984-2.214 0-1.546 1.88-3.203 4.093-3.203 1.985 0 4.422.886 4.422 4.865 0 3.974-3.318 5.307-6.854 5.307zm-47.979-44.333c-1.662.333-3.537 1.328-4.86 2.323.662-.219 1.323-.443 1.985-.443 2.213 0 3.984 1.662 6.187 1.662.776 0 1.11-.553 1.11-1.22 0-.333 0-.66-.224-.994.89.115 1.552.661 1.552 1.547 0 2.104-2.323 3.536-4.313 3.536-2.541 0-4.755-1.765-7.406-1.765-1.104 0-1.766 1.99-1.989 2.875l-.886-.886c.776-3.87 4.089-6.083 7.406-7.74-1.218-.218-2.323-1.218-2.323-2.541 0-3.87 5.198-3.318 7.521-3.318 2.323 0 6.412-.11 6.412-3.312 0-.89-.552-1.328-1.328-1.88 1.328-.224 2.875.661 3.093 2.541.776 5.745-6.411 8.73-11.937 9.615zm13.484 18.906c-.989 0-2.208.443-3.427.443-2.427 0-3.422-1.104-3.422-2.766 0-.995.219-1.104.88-1.99-5.083.11-10.171 3.761-15.473 10.063 1.104-.448 3.651-1.328 5.968-1.995l-.218-.661c0-.886.546-1.547 2.427-1.547 2.432 0 3.651-.776 3.541-2.766 1.328.558 1.766 1.329 1.766 2.323 0 .771-.219 1.328-.662 1.662 7.407 0 13.594 1.765 18.016 2.984-1.99-2.984-5.193-5.75-9.396-5.75zm10.172 7.297c-3.312-.885-7.625-1.995-11.271-2.656 4.641 1.656 8.62 4.203 12.271 6.745 0-1.214-.338-2.652-1-4.089zm13.708 11.385c-.885 0-.989.662-.989 1.214 1.432 1.219 4.198 2.656 5.297 3.208-1.651-2.323-3.094-4.422-4.308-4.422z" fill="#fff"/></g><path d="M27.932 59.818c-.312-1.235-1.234-4.016-2.781-4.016-3.552 0-6.802 2.474-10.349 2.474-2.63 0-6.036-2.01-6.036-4.948 0-1.24.932-2.005 2.166-2.167-.15.47-.307.928-.307 1.396 0 .927.615 1.698 1.547 1.698 3.083 0 5.562-2.318 8.65-2.318.928 0 1.855.308 2.782.62-1.854-1.396-4.479-2.786-6.797-3.245C9.078 48.072-.963 43.901.115 35.865c.307-2.625 2.474-3.86 4.328-3.553-.927.771-1.854 1.386-1.854 2.626 0 4.484 5.713 4.635 8.958 4.635 3.4 0 10.515-.77 10.515 4.64 0 1.85-1.546 3.245-3.244 3.553 4.635 2.317 9.265 5.406 10.349 10.817l-1.235 1.235zm212.896-1.235c1.083-5.411 5.714-8.5 10.349-10.817-1.698-.308-3.245-1.703-3.245-3.552 0-5.412 7.11-4.641 10.516-4.641 3.239 0 8.958-.151 8.958-4.636 0-1.24-.932-1.854-1.854-2.624 1.854-.308 4.021.927 4.323 3.552 1.083 8.036-8.958 12.208-16.687 13.447-2.318.459-4.943 1.85-6.797 3.245.921-.312 1.854-.62 2.781-.62 3.083 0 5.562 2.318 8.651 2.318.927 0 1.547-.77 1.547-1.698 0-.468-.156-.927-.307-1.396 1.229.162 2.161.928 2.161 2.167 0 2.938-3.401 4.948-6.031 4.948-3.552 0-6.797-2.474-10.349-2.474-1.547 0-2.469 2.781-2.787 4.016l-1.229-1.235zm-6.911 3.709c-3.36 2.463-8.875 5.692-27.115 3.854-4.979-.495-9.911-1.255-14.932-2.016a218.15 218.15 0 00-9.5-1.166c-2.245-.224-7.891-.808-10-.584-2.198.224-3.047.985-3.094 1.39 0 .09-.042.272.047.36.047.266.224.448.224.625-.047.407-1.078.808-2.016.719-.63-.047-1.255-.448-1.213-.99.088-.49 1.661-2.416 5.427-2.958 3.047-.401 6.541 0 18.51 1.167 14.88 1.479 24.88 1.526 32.459-1.032 5.557-1.838 13.984-6.588 14.786-13.359.766-6.047-4.568-8.963-9.052-9.411-9.276-.896-18.604 7.265-19.318 13-.406 3.182 2.328 4.932 5.245 5.203 3.094.312 5.604-.943 7.797-2.558 3.948-2.911 4.396-5.02 4.526-6.005.135-1.031-.042-1.885-.537-2.51-.406-.495-.713-.537-1.255-.584-.224 0-.583-.046-.536-.406.047-.49.536-.448.719-.4 1.479.135 3.359 1.926 3 4.885-.625 4.885-6.813 9.052-13.448 8.38-5.422-.537-7.886-4.526-7.396-8.334.807-6.635 10.489-13.093 19.771-12.15 8.338.807 13.942 7.484 13.041 15.015-.536 4.26-2.864 7.443-6.14 9.865zM30.23 53.078c-.902-7.531 4.702-14.208 13.046-15.016 9.276-.942 18.958 5.516 19.766 12.146.49 3.813-1.974 7.802-7.396 8.339-6.636.672-12.823-3.495-13.448-8.38-.36-2.959 1.52-4.756 3-4.886.182-.047.677-.088.719.401.047.36-.313.407-.537.407-.536.041-.854.088-1.255.583-.495.625-.672 1.479-.536 2.505.13.99.578 3.094 4.526 6.01 2.192 1.615 4.703 2.87 7.796 2.553 2.917-.266 5.651-2.016 5.245-5.198-.718-5.74-10.041-13.896-19.317-13-4.485.448-9.818 3.364-9.058 9.411.808 6.771 9.235 11.521 14.797 13.36 7.573 2.557 17.568 2.51 32.453 1.03 11.969-1.166 15.464-1.567 18.51-1.166 3.766.542 5.339 2.469 5.428 2.958.047.542-.584.943-1.214.99-.937.088-1.969-.313-2.015-.719 0-.177.177-.36.224-.625.088-.094.046-.27.046-.36-.046-.405-.895-1.166-3.093-1.39-2.11-.224-7.755.36-9.995.584-3.188.312-6.37.718-9.505 1.166-5.021.76-9.954 1.521-14.927 2.016-18.245 1.838-23.76-1.39-27.12-3.854-3.271-2.422-5.604-5.604-6.14-9.865z" fill="#fff"/><path d="M29.854 98.688h210.292" stroke="#fff" stroke-width="2"/><mask id="b" style="mask-type:luminance" maskUnits="userSpaceOnUse" x="127" y="51" width="16" height="18"><path d="M127.516 51.792h14.953v16.895h-14.953V51.793z" fill="#fff"/></mask><g mask="url(#b)"><path d="M142.469 59.854a7.476 7.476 0 00-3.13-6.088c-.183-1.344-1.396-1.974-1.396-1.974.38.49.625 1.057.62 1.672-.011.927-.61 1.765-1.365 2.307-.75.536-1.651.828-2.531 1.114-.886.287-1.782.584-2.526 1.136-.719.531-1.287 1.375-1.183 2.26-.198-.75-.364-1.547-.239-2.323.13-.802.578-1.39 1.224-1.854.75-.568 1.698-.911 2.557-1.286.714-.308 1.443-.573 2.125-.948.406-.219.797-.49 1.099-.844l.078-.104a7.48 7.48 0 00-10.286 6.932 7.476 7.476 0 007.369 7.474c-.708-.953-1.635-1.729-2.38-2.656-.823-1.02-1.437-2.365-1.073-3.625.276-.953.912-1.594 1.787-2.063.87-.468 1.906-.63 2.833-.974.927-.343 2.276-.671 2.573-1.75.198.886-.349 1.678-1.083 2.198-.74.521-1.662.88-2.485 1.25-.828.37-1.646.917-1.968 1.76-.344.891-.053 1.912.427 2.735.484.828 1.14 1.542 1.614 2.37.323.573.552 1.24.542 1.885.005.084 0 .157-.011.23 0 0 .329-.506.152-1.401a7.482 7.482 0 006.656-7.433z" fill="#fff"/></g><path d="M99.92 71.606v.291c-.291.016-.49.079-.583.188-.083.115-.125.328-.125.646v7.562c.667-.76 1.313-1.5 1.938-2.208a153.91 153.91 0 001.75-1.98 149.37 149.37 0 011.479-1.645c.442-.5.802-.922 1.083-1.27.193-.22.344-.397.458-.522.11-.125.188-.229.23-.312.052-.084.088-.136.104-.167a.145.145 0 00.041-.104c0-.125-.093-.188-.27-.188v-.291h3.395v.291a1.726 1.726 0 00-.437.146c-.125.073-.25.156-.375.25a4.87 4.87 0 00-.417.375c-.14.14-.307.313-.5.521l-4.625 5.313 5.875 9.375c.209.349.38.593.521.729a.854.854 0 00.563.187v.292h-3.313v-.292c.261 0 .396-.073.396-.229 0-.083-.057-.213-.167-.396l-2.333-3.687a247.738 247.738 0 01-1.542-2.48l-1.271-2.083-2.583 3v5.021c0 .323.042.542.125.667.083.114.276.177.583.187v.292h-3.354v-.292c.292-.01.485-.073.584-.187.093-.11.145-.323.145-.646V72.73c0-.29-.052-.5-.145-.624-.084-.125-.282-.193-.584-.209v-.291h3.354zm17.616 2.834v.29c-.25.032-.417.084-.5.167-.083.073-.125.224-.125.459v12.812c0 .25.042.412.125.48.083.072.25.12.5.145v.292h-2.875v-.292c.234-.026.396-.067.479-.125.094-.067.146-.234.146-.5V75.356c0-.235-.042-.386-.125-.459-.083-.083-.25-.135-.5-.166v-.292h2.875zm11.071 6.77c2.26 0 3.396-.885 3.396-2.667 0-.86-.333-1.526-1-2-.656-.469-1.516-.708-2.583-.708h-3.313v5.375h3.5zm.375-6.77c.719 0 1.365.103 1.938.312a4.15 4.15 0 011.479.895c.401.391.708.844.916 1.355.219.515.334 1.083.334 1.708 0 .948-.271 1.766-.813 2.458-.531.683-1.302 1.12-2.312 1.313l2.833 5.604c.125.266.255.448.396.542.151.099.354.161.604.187v.271h-2.833v-.292c.177-.052.271-.15.271-.291a.6.6 0 00-.042-.146 5.73 5.73 0 00-.167-.334 43.56 43.56 0 01-.604-1.062 130.21 130.21 0 01-.937-1.833 73.075 73.075 0 01-.855-1.667 22.48 22.48 0 00-.416-.854h-3.667v5.562c0 .209.026.365.083.459.052.083.188.14.396.166v.292h-2.604v-.292c.208-.026.339-.083.396-.166.052-.094.083-.25.083-.459V75.356c0-.209-.031-.354-.083-.438-.057-.094-.188-.156-.396-.187v-.292h6zm12.41 0v.29c-.25.032-.417.084-.5.167-.084.073-.125.224-.125.459v12.812c0 .25.041.412.125.48.083.072.25.12.5.145v.292h-2.875v-.292c.234-.026.396-.067.479-.125.094-.067.146-.234.146-.5V75.356c0-.235-.042-.386-.125-.459-.084-.083-.25-.135-.5-.166v-.292h2.875zm10.946-.23c.958 0 1.797.167 2.521.5.734.323 1.359.688 1.875 1.104.109.084.213.167.312.25.11.084.177.125.209.125.052 0 .125-.031.208-.104l.208.146-1.458 1.854-.208-.146v-.187c0-.235-.099-.48-.292-.73a3.053 3.053 0 00-.792-.687 4.256 4.256 0 00-1.146-.52 4.512 4.512 0 00-1.354-.21c-.807 0-1.5.204-2.083.605-.583.39-1.073.89-1.458 1.5a7.267 7.267 0 00-.855 1.958 7.824 7.824 0 00-.27 1.98c0 .848.104 1.656.312 2.416.208.75.505 1.417.896 2 .401.573.88 1.031 1.437 1.375.568.334 1.214.5 1.938.5.5 0 .979-.068 1.437-.208a5.725 5.725 0 001.25-.563c.36-.219.646-.458.855-.708.218-.26.333-.51.333-.75a.796.796 0 00-.042-.23 4.92 4.92 0 01-.083-.29l.167-.147 1.479 1.854-.146.125h-.125c-.125 0-.26.058-.396.167-.125.115-.349.307-.667.584-.656.572-1.312.973-1.979 1.208a6.246 6.246 0 01-2.083.354c-.99 0-1.87-.203-2.646-.604a5.842 5.842 0 01-1.937-1.625c-.532-.677-.933-1.48-1.209-2.396a9.972 9.972 0 01-.416-2.938c0-1.026.135-2 .416-2.916.292-.927.698-1.735 1.229-2.417a5.822 5.822 0 011.959-1.625c.776-.4 1.646-.604 2.604-.604zm10.681 7.562c0 .698.088 1.412.27 2.146.193.724.48 1.39.855 2a4.7 4.7 0 001.479 1.459c.609.375 1.344.562 2.208.562.802 0 1.511-.177 2.125-.541a4.6 4.6 0 001.5-1.417c.386-.584.677-1.24.875-1.98a8.745 8.745 0 00.292-2.229 8.71 8.71 0 00-.292-2.208 6.74 6.74 0 00-.875-1.979 4.654 4.654 0 00-1.5-1.417c-.614-.375-1.333-.562-2.167-.562-.833 0-1.552.187-2.145.562a4.595 4.595 0 00-1.48 1.438 6.512 6.512 0 00-.875 1.979 9.124 9.124 0 00-.27 2.188zm4.812-7.562c1.026 0 1.943.224 2.75.667.802.432 1.479 1 2.021 1.708.542.698.948 1.5 1.229 2.417.276.916.417 1.843.417 2.77 0 .891-.136 1.787-.396 2.688a7.596 7.596 0 01-1.208 2.417 6.366 6.366 0 01-2 1.77c-.808.459-1.745.688-2.813.688-1.083 0-2.031-.23-2.833-.688a6.581 6.581 0 01-2-1.77 8.037 8.037 0 01-1.209-2.417 9.483 9.483 0 01-.395-2.688c0-.927.135-1.843.416-2.75a7.78 7.78 0 011.209-2.416 6.189 6.189 0 012-1.73c.802-.442 1.739-.666 2.812-.666zm-91.254 34.056c.636 0 1.094-.109 1.375-.333.276-.219.417-.604.417-1.146 0-.526-.167-.906-.5-1.146-.323-.234-.77-.354-1.354-.354H74.89v2.979h1.687zm-.041-3.75a3.7 3.7 0 011.146.167c.343.115.63.271.854.479.234.198.406.432.52.708.126.282.188.584.188.917 0 .766-.224 1.328-.667 1.688-.448.364-1.12.541-2.02.541H74.89v3.021c0 .156.01.261.042.313.041.057.135.093.291.104v.125h-1.562v-.125c.15-.011.24-.047.27-.104.042-.068.063-.177.063-.334v-6.937c0-.151-.02-.255-.062-.313-.032-.067-.12-.104-.271-.104v-.146h2.875zm10.59.604l-1.229 4.313h2.5l-1.25-4.313h-.02zm.98-.604v.146c-.115.016-.167.063-.167.146 0 .042.02.141.062.292.052.156.146.416.271.791.11.391.219.761.333 1.104l.25.917c.094.307.177.557.25.75.052.24.136.542.25.917.11.364.22.724.334 1.083.125.406.25.828.375 1.271.01.083.026.156.041.208.026.058.047.104.063.146a.328.328 0 00.104.104c.042.016.094.037.167.063v.125h-1.375v-.125a.338.338 0 00.146-.021c.026-.01.041-.047.041-.104a.375.375 0 00-.041-.125 2.34 2.34 0 01-.042-.229l-.542-1.792h-2.958c-.167.583-.308 1.062-.417 1.437-.114.365-.166.584-.166.667 0 .057.02.099.062.125.052.016.11.031.167.042v.125H84v-.125c.11-.042.177-.089.209-.146a1.37 1.37 0 00.125-.333c.177-.568.333-1.089.458-1.563.052-.193.11-.385.166-.583a7.27 7.27 0 01.167-.563c.052-.166.094-.312.125-.437.042-.125.068-.209.084-.25.01-.042.03-.11.062-.209.026-.109.052-.229.083-.354.042-.135.084-.281.125-.437.052-.167.105-.323.146-.479.11-.36.23-.756.354-1.188.094-.302.172-.552.23-.75.052-.193.083-.302.083-.333 0-.11-.063-.167-.188-.167v-.146h1.875zm9.069 0v.146c-.14 0-.23.031-.27.083-.043.042-.063.141-.063.292v6.792h3.458c.135 0 .234-.011.292-.042.067-.026.125-.104.166-.229h.125v1.312h-.125a.53.53 0 00-.146-.25c-.041-.031-.14-.041-.291-.041h-4.688v-.125c.125-.011.209-.042.25-.084.042-.052.063-.156.063-.312v-7.042c0-.135-.021-.229-.063-.271-.041-.052-.125-.083-.25-.083v-.146h1.542zm14.295-.25v1.271h-.125c-.031-.125-.083-.193-.166-.208a.869.869 0 00-.292-.042h-3.646v2.792h2.375c.151 0 .255-.011.313-.042.067-.026.114-.104.145-.229h.125v1.375h-.125c-.031-.151-.072-.24-.125-.271-.057-.042-.161-.062-.312-.062h-2.396v2.979h3.771c.135 0 .24-.011.312-.042.068-.026.115-.104.146-.229h.125v1.312h-.125c-.031-.125-.078-.208-.146-.25-.057-.031-.161-.041-.312-.041h-5v-.125c.135-.011.229-.042.271-.084.041-.052.062-.166.062-.333v-6.979c0-.151-.021-.255-.062-.313-.042-.052-.136-.083-.271-.083v-.146h4.875c.151 0 .255-.01.312-.041.068-.026.115-.094.146-.209h.125zm8.424.146c.375 0 .714.063 1.021.188.318.125.583.25.792.375.067.041.135.093.208.145.068.042.135.084.208.125l.167.105a.246.246 0 00.104.041.423.423 0 00.146-.021l.062.042-.791 1.188-.104-.084a.695.695 0 00.041-.25c0-.067-.052-.166-.146-.291a1.803 1.803 0 00-.395-.355 2.185 2.185 0 00-.625-.312 2.09 2.09 0 00-.771-.146c-.459 0-.844.115-1.146.333-.292.224-.531.5-.708.834a3.692 3.692 0 00-.396 1.083 5.657 5.657 0 00-.125 1.146c0 .391.041.792.125 1.208.093.407.234.766.416 1.084.177.323.417.583.709.791.302.198.677.292 1.125.292.25 0 .484-.031.708-.104.234-.068.443-.156.625-.271a1.86 1.86 0 00.438-.417.777.777 0 00.166-.458v-.229l.084-.063.875 1.104-.084.042h-.083c-.073 0-.162.042-.271.125-.099.083-.198.167-.292.25a4.16 4.16 0 01-.979.583 2.972 2.972 0 01-1.083.188c-.573 0-1.073-.104-1.5-.313a2.865 2.865 0 01-1.042-.875 4.11 4.11 0 01-.604-1.312 5.972 5.972 0 01-.208-1.625c0-.583.067-1.125.208-1.625.135-.5.339-.938.604-1.313a2.874 2.874 0 011.042-.875c.417-.218.906-.333 1.479-.333zm13.549-.146v1.271h-.125c-.031-.125-.084-.193-.167-.208a.869.869 0 00-.292-.042h-3.645v2.792h2.375c.151 0 .255-.011.312-.042.068-.026.115-.104.146-.229h.125v1.375h-.125c-.031-.151-.073-.24-.125-.271-.057-.042-.162-.062-.313-.062h-2.395v2.979h3.77c.136 0 .24-.011.313-.042.068-.026.115-.104.146-.229h.125v1.312h-.125c-.031-.125-.078-.208-.146-.25-.057-.031-.162-.041-.313-.041h-5v-.125c.136-.011.23-.042.271-.084.042-.052.063-.166.063-.333v-6.979c0-.151-.021-.255-.063-.313-.041-.052-.135-.083-.271-.083v-.146h4.875c.151 0 .256-.01.313-.041.068-.026.115-.094.146-.209h.125zm14.696.25v.146c-.141 0-.229.031-.271.083-.041.058-.062.157-.062.292v3.042h3.958v-3.021c0-.135-.021-.234-.062-.292-.042-.067-.136-.104-.271-.104v-.146h1.541v.146c-.125 0-.218.031-.27.083-.042.058-.063.157-.063.292v7.021c0 .156.021.26.063.312a.516.516 0 00.27.084v.125h-1.541v-.125c.125-.011.208-.042.25-.084.052-.052.083-.156.083-.312v-3.208h-3.958v3.208c0 .156.021.26.062.312.042.042.13.073.271.084v.125h-1.562v-.125c.135-.011.229-.042.27-.084.042-.052.063-.156.063-.312v-7.021c0-.125-.021-.213-.063-.271-.031-.067-.119-.104-.27-.104v-.146h1.562zm11.087 4.042c0 .458.047.896.146 1.312.094.407.24.766.438 1.084.208.307.463.552.771.729.317.167.687.25 1.104.25.416 0 .776-.083 1.083-.25.302-.177.552-.422.75-.729.208-.302.36-.667.458-1.084a5.94 5.94 0 00.021-2.52 3.487 3.487 0 00-.416-1.084 2.119 2.119 0 00-.75-.791c-.308-.209-.698-.313-1.167-.313-.448 0-.828.099-1.146.292a2.288 2.288 0 00-.75.791 4.1 4.1 0 00-.417 1.084c-.083.39-.125.802-.125 1.229zm2.459-4.146c.568 0 1.062.125 1.479.375.417.24.76.552 1.042.938.276.39.479.833.604 1.333.135.49.208.99.208 1.5 0 .5-.073.995-.208 1.479-.125.49-.328.932-.604 1.333a3.462 3.462 0 01-1.042.959c-.417.239-.911.354-1.479.354-.573 0-1.063-.115-1.479-.354a3.155 3.155 0 01-1.042-.938 4.024 4.024 0 01-.625-1.333 6.045 6.045 0 010-3c.135-.5.344-.943.625-1.333a3.268 3.268 0 011.042-.938c.416-.25.906-.375 1.479-.375zm8.063-.146h.146c.026.125.068.203.125.229.068.016.177.021.333.021h4.667c.135 0 .234-.01.292-.041.067-.026.114-.094.145-.209h.146v1.271h-.146c-.031-.125-.078-.193-.145-.208a.869.869 0 00-.292-.042h-1.896v6.771c0 .156.021.26.063.312.041.042.13.073.27.084v.125h-1.562v-.125c.125-.011.208-.042.25-.084.052-.052.083-.156.083-.312v-6.771h-1.875a.992.992 0 00-.333.042c-.057.031-.099.099-.125.208h-.146v-1.271zm16.483 0v1.271h-.125c-.031-.125-.083-.193-.167-.208a.862.862 0 00-.291-.042h-3.646v2.792h2.375c.151 0 .255-.011.312-.042.068-.026.115-.104.146-.229h.125v1.375h-.125c-.031-.151-.073-.24-.125-.271-.057-.042-.161-.062-.312-.062h-2.396v2.979h3.771a.839.839 0 00.312-.042c.068-.026.115-.104.146-.229h.125v1.312h-.125c-.031-.125-.078-.208-.146-.25-.057-.031-.161-.041-.312-.041h-5v-.125c.135-.011.229-.042.27-.084.042-.052.063-.166.063-.333v-6.979c0-.151-.021-.255-.063-.313-.041-.052-.135-.083-.27-.083v-.146h4.875c.151 0 .255-.01.312-.041.068-.026.115-.094.146-.209h.125zm7.069.25v.146c-.14 0-.229.031-.27.083-.042.042-.063.141-.063.292v6.792h3.458c.136 0 .235-.011.292-.042.068-.026.125-.104.167-.229h.125v1.312h-.125a.547.547 0 00-.146-.25c-.042-.031-.141-.041-.292-.041h-4.687v-.125c.125-.011.208-.042.25-.084.041-.052.062-.156.062-.312v-7.042c0-.135-.021-.229-.062-.271-.042-.052-.125-.083-.25-.083v-.146h1.541z" fill="#fff"/></svg>