<svg width="271" height="113" fill="none" xmlns="http://www.w3.org/2000/svg"><mask id="a" style="mask-type:luminance" maskUnits="userSpaceOnUse" x="69" y="0" width="132" height="57"><path d="M69 .214h132V57H69V.214z" fill="#fff"/></mask><g mask="url(#a)"><path d="M129.693 28.375c0 1.537.885 3.948 2.765 6.365.219.328.443.546.771.88v3.62c-1.213-.657-3.87-2.084-6.963-2.745.442 1.536-.11 2.86-1.886 2.86-1.323 0-2.317-.772-3.646-.772-1.437 0-2.317.771-2.317 1.646 0 .875.109 1.865.771 2.964-.224 0-3.094-.99-3.094-2.964 0-1.87.885-3.182 2.208-3.953-7.187.99-12.937 4.39-18.135 8.125.224 1.646.776 3.182 1.552 4.39.219-2.525 1.656-5.489 5.083-5.489 2.88 0 5.755.88 6.417 5.162-.776-.329-1.656-.657-2.875-.657-.995 0-2.104 1.427-2.104 2.521 0 2.089 1.994 4.172 5.312 4.172 8.511 0 10.943-6.365 10.833-10.208h1.329c0 8.78-6.412 12.515-12.162 12.515-8.516 0-13.489-4.718-15.036-11.198-7.308 5.38-13.72 10.98-21.792 10.98-3.531 0-6.854-1.318-6.854-5.271s2.432-4.834 4.422-4.834c2.323 0 4.093 1.646 4.093 3.188 0 1.864-1.88 2.635-2.984 2.193.552-.547.77-1.094.77-2.084 0-.88-1.213-1.974-2.322-1.974-1.984 0-2.984 1.537-2.984 3.51 0 2.527 1.88 3.735 4.536 3.735 5.636 0 7.516-11.417 13.266-11.417 2.77 0 3.323 2.084 3.323 2.855 0 .656-.224 2.302-.224 2.302 2.099-1.427 4.197-3.073 6.52-4.828-.109-.88-.218-1.756-.218-2.745 0-.657 0-1.427.11-2.089-5.09.547-7.407-3.073-7.407-5.49 0-2.41 1.547-4.171 3.979-4.171 1.552 0 2.766 1.427 2.766 2.854 0 1.099-.443 1.87-1.771 1.87-.995 0-1.547-.88-1.547-1.427 0-1.318 1.214-1.209 1.214-1.651-.329-.438-.88-.22-1.329-.22-.88 0-2.208.99-2.208 2.527 0 3.182 3.208 4.724 6.526 4.5 1.547-8.01 8.844-12.625 15.922-12.625 5.75 0 10.505 2.307 14.708 6.041-.552-.88-1-2.088-1-3.515 0-1.755.667-3.188 2.214-3.188 1.995 0 2.984 1.318 3.432 2.745-1.995-.656-3.984-.328-3.984.995zM87.338 49.891c-1.213 0-2.65 2.083-4.307 4.39 1.104-.547 3.87-1.974 5.302-3.182 0-.552-.109-1.208-.995-1.208zm13.719-11.308c-.666 1.427-.994 2.855-.994 4.058 3.645-2.521 7.625-5.047 12.27-6.693-3.645.656-7.963 1.755-11.276 2.635zm16.141-11.53c.776.88.885.989.885 1.978 0 1.646-.885 2.745-3.427 2.745-1.218 0-2.432-.438-3.427-.438-4.203 0-7.411 2.745-9.291 5.709 4.312-1.208 10.505-2.964 17.916-2.964-.448-.333-.666-.88-.666-1.65 0-.985.442-1.756 1.765-2.303-.104 1.974 1.11 2.745 3.542 2.745 1.885 0 2.437.656 2.437 1.536l-.224.657c2.323.661 4.87 1.536 5.974 1.979-5.312-6.26-10.401-9.885-15.484-9.995zm15.479-7.027c-.219-.875-.88-2.854-1.989-2.854-2.542 0-4.865 1.76-7.407 1.76-1.88 0-4.317-1.427-4.317-3.515 0-.88.666-1.427 1.552-1.537-.11.328-.224.656-.224.99 0 .656.442 1.208 1.109 1.208 2.208 0 3.979-1.65 6.193-1.65.661 0 1.328.223 1.984.442-1.323-.99-3.203-1.98-4.859-2.307-5.531-.88-12.719-3.844-11.943-9.553.219-1.864 1.766-2.744 3.094-2.526-.662.552-1.328.99-1.328 1.87 0 3.182 4.093 3.292 6.411 3.292 2.438 0 7.526-.547 7.526 3.297 0 1.312-1.109 2.302-2.323 2.52 3.318 1.646 6.63 3.844 7.407 7.688l-.886.875zm60.38 36.563c-8.078 0-14.484-5.6-21.786-10.98-1.438 6.48-6.521 11.198-15.042 11.198-5.635 0-12.161-3.734-12.161-12.515h1.328c0 3.843 2.427 10.208 10.833 10.208 3.323 0 5.313-2.083 5.313-4.172 0-1.094-1.11-2.52-2.104-2.52-1.214 0-2.099.327-2.875.656.661-4.282 3.536-5.162 6.416-5.162 3.537 0 4.865 2.964 5.084 5.49.776-1.209 1.328-2.745 1.552-4.391-5.198-3.734-10.948-7.135-18.136-8.125 1.323.77 2.209 2.083 2.209 3.953 0 1.98-2.875 2.964-3.094 2.964.661-1.094.771-2.084.771-2.964 0-.875-.771-1.646-2.318-1.646-1.333 0-2.323.771-3.651.771-1.771 0-2.323-1.323-1.88-2.86-3.094.662-5.75 2.09-6.964 2.746v-3.62l.88-.88c1.881-2.417 2.657-4.829 2.657-6.365 0-1.318-1.99-1.651-3.985-.99.448-1.427 1.438-2.744 3.427-2.744 1.552 0 2.214 1.427 2.214 3.182a6.633 6.633 0 01-.995 3.515c4.313-3.734 8.958-6.041 14.703-6.041 7.193 0 14.38 4.614 15.927 12.63 3.318.219 6.526-1.323 6.526-4.505 0-1.537-1.218-2.526-2.208-2.526-.448 0-1-.219-1.333.219 0 .442 1.218.333 1.218 1.65 0 .547-.442 1.428-1.547 1.428-1.328 0-1.77-.771-1.77-1.87 0-1.427 1.213-2.854 2.76-2.854 2.438 0 3.984 1.76 3.984 4.177 0 2.411-2.322 6.036-7.411 5.49.109.656.109 1.426.109 2.083 0 .99 0 1.864-.109 2.745a168.414 168.414 0 006.417 4.828s-.219-1.646-.219-2.302c0-.771.661-2.855 3.318-2.855 5.75 0 7.63 11.417 13.265 11.417 2.651 0 4.537-1.208 4.537-3.734 0-1.974-1-3.51-2.99-3.51-1.104 0-2.323 1.093-2.323 1.973 0 .99.224 1.537.776 2.089-1.104.437-2.984-.334-2.984-2.198 0-1.537 1.88-3.182 4.094-3.182 1.984 0 4.421.875 4.421 4.828 0 3.948-3.317 5.27-6.854 5.27zm-47.994-44.026c-1.662.328-3.537 1.317-4.865 2.307.661-.219 1.328-.443 1.99-.443 2.213 0 3.984 1.651 6.192 1.651.776 0 1.104-.552 1.104-1.208 0-.333 0-.662-.218-.99.885.11 1.547.656 1.547 1.537 0 2.088-2.318 3.515-4.313 3.515-2.542 0-4.755-1.76-7.406-1.76-1.11 0-1.771 1.979-1.99 2.854l-.885-.875c.771-3.844 4.088-6.042 7.406-7.688-1.219-.218-2.323-1.208-2.323-2.52 0-3.844 5.198-3.297 7.521-3.297 2.323 0 6.411-.11 6.411-3.292 0-.88-.552-1.318-1.323-1.87 1.323-.218 2.87.662 3.094 2.526.776 5.709-6.411 8.672-11.942 9.553zm13.489 18.776c-.995 0-2.208.437-3.427.437-2.432 0-3.427-1.099-3.427-2.745 0-.99.224-1.099.885-1.979-5.088.115-10.177 3.735-15.479 9.995 1.104-.443 3.646-1.318 5.969-1.98l-.219-.656c0-.88.547-1.536 2.427-1.536 2.433 0 3.651-.77 3.542-2.745 1.328.547 1.771 1.318 1.771 2.302 0 .771-.219 1.318-.667 1.651 7.412 0 13.604 1.756 18.026 2.964-1.989-2.964-5.198-5.708-9.401-5.708zm10.172 7.244c-3.313-.88-7.625-1.979-11.276-2.635 4.646 1.646 8.625 4.172 12.276 6.698 0-1.209-.333-2.636-1-4.063zm13.714 11.308c-.886 0-.99.656-.99 1.208 1.432 1.208 4.198 2.635 5.302 3.182-1.656-2.307-3.094-4.39-4.312-4.39z" fill="#000"/></g><path d="M27.943 59.411c-.313-1.229-1.24-3.99-2.787-3.99-3.552 0-6.797 2.454-10.354 2.454-2.625 0-6.031-1.995-6.031-4.911 0-1.23.932-1.995 2.166-2.151-.15.463-.312.921-.312 1.385 0 .922.62 1.687 1.552 1.687 3.083 0 5.563-2.302 8.651-2.302.927 0 1.86.308 2.781.615-1.854-1.386-4.479-2.766-6.797-3.224C9.079 47.744-.963 43.599.116 35.62c.307-2.61 2.474-3.833 4.328-3.531-.922.77-1.854 1.38-1.854 2.614 0 4.448 5.718 4.604 8.963 4.604 3.401 0 10.516-.77 10.516 4.604 0 1.839-1.547 3.22-3.245 3.526 4.635 2.303 9.27 5.376 10.354 10.745l-1.234 1.23zm212.953-1.229c1.083-5.37 5.713-8.442 10.349-10.745-1.693-.307-3.24-1.687-3.24-3.526 0-5.375 7.11-4.604 10.516-4.604 3.245 0 8.963-.156 8.963-4.604 0-1.234-.932-1.844-1.854-2.614 1.854-.302 4.016.921 4.323 3.53 1.083 7.98-8.958 12.126-16.693 13.355-2.317.458-4.942 1.839-6.796 3.224.921-.307 1.854-.615 2.776-.615 3.088 0 5.567 2.302 8.656 2.302.932 0 1.547-.765 1.547-1.687 0-.464-.157-.922-.308-1.386 1.235.157 2.167.922 2.167 2.152 0 2.916-3.406 4.911-6.036 4.911-3.552 0-6.797-2.453-10.349-2.453-1.552 0-2.474 2.76-2.787 3.99l-1.234-1.23zm-6.912 3.683c-3.364 2.447-8.875 5.65-27.125 3.828-4.979-.49-9.911-1.245-14.932-2a219.326 219.326 0 00-9.505-1.162c-2.245-.218-7.896-.802-10-.578-2.198.224-3.052.98-3.099 1.38 0 .089-.042.271.047.36.047.265.229.442.229.62-.047.4-1.078.802-2.021.713-.625-.042-1.255-.443-1.213-.98.088-.489 1.661-2.405 5.427-2.937 3.052-.4 6.547 0 18.521 1.157 14.885 1.468 24.885 1.515 32.463-1.021 5.557-1.828 13.99-6.547 14.797-13.271.76-6.005-4.573-8.901-9.057-9.349-9.282-.89-18.61 7.214-19.328 12.911-.402 3.162 2.333 4.901 5.244 5.167 3.099.313 5.61-.937 7.808-2.536 3.942-2.896 4.39-4.99 4.526-5.97.135-1.02-.042-1.869-.537-2.489-.406-.49-.719-.536-1.255-.583-.224 0-.583-.042-.542-.401.047-.49.542-.443.724-.401 1.474.135 3.36 1.917 3 4.854-.625 4.854-6.817 8.995-13.453 8.323-5.427-.531-7.89-4.495-7.396-8.276.808-6.589 10.49-13 19.771-12.068 8.344.802 13.948 7.438 13.052 14.917-.541 4.23-2.87 7.39-6.146 9.792zm-203.75-9.146c-.896-7.48 4.709-14.115 13.052-14.917 9.282-.932 18.964 5.48 19.776 12.068.49 3.781-1.973 7.745-7.4 8.276-6.636.672-12.823-3.469-13.454-8.323-.359-2.938 1.526-4.719 3.006-4.854.182-.042.671-.089.718.4.042.36-.312.402-.536.402-.542.047-.854.094-1.26.578-.49.625-.672 1.474-.537 2.495.135.979.583 3.073 4.531 5.968 2.193 1.6 4.703 2.85 7.802 2.537 2.912-.27 5.646-2.005 5.245-5.167-.719-5.698-10.047-13.802-19.328-12.911-4.484.448-9.818 3.338-9.057 9.349.807 6.724 9.234 11.443 14.797 13.27 7.578 2.537 17.578 2.49 32.463 1.021 11.974-1.156 15.469-1.557 18.52-1.156 3.767.537 5.339 2.448 5.428 2.938.042.536-.583.937-1.214.979-.942.088-1.974-.313-2.015-.714 0-.177.177-.354.224-.62.088-.088.047-.265.047-.354-.047-.4-.901-1.161-3.1-1.385-2.103-.219-7.754.36-10 .578-3.182.313-6.364.714-9.504 1.161-5.021.756-9.954 1.511-14.933 2.006-18.245 1.823-23.76-1.386-27.125-3.834-3.27-2.4-5.604-5.562-6.146-9.791z" fill="#000"/><path d="M29.854 98.688h210.292" stroke="#000" stroke-width="2"/><mask id="b" style="mask-type:luminance" maskUnits="userSpaceOnUse" x="127" y="51" width="16" height="18"><path d="M127.516 51.792h14.953v16.895h-14.953V51.793z" fill="#fff"/></mask><g mask="url(#b)"><path d="M142.469 59.854a7.476 7.476 0 00-3.13-6.088c-.183-1.344-1.396-1.974-1.396-1.974.38.49.625 1.057.62 1.672-.011.927-.61 1.765-1.365 2.307-.75.536-1.651.828-2.531 1.114-.886.287-1.782.584-2.526 1.136-.719.531-1.287 1.375-1.183 2.26-.198-.75-.364-1.547-.239-2.323.13-.802.578-1.39 1.224-1.854.75-.568 1.698-.911 2.557-1.286.714-.308 1.443-.573 2.125-.948.406-.219.797-.49 1.099-.844l.078-.104a7.48 7.48 0 00-10.286 6.932 7.476 7.476 0 007.369 7.474c-.708-.953-1.635-1.729-2.38-2.656-.823-1.021-1.437-2.365-1.073-3.625.276-.953.912-1.594 1.787-2.063.87-.468 1.906-.63 2.833-.974.927-.343 2.276-.671 2.573-1.75.198.886-.349 1.678-1.083 2.198-.74.521-1.662.88-2.485 1.25-.828.37-1.646.917-1.968 1.76-.344.891-.053 1.912.427 2.735.484.828 1.14 1.542 1.614 2.37.323.573.552 1.24.542 1.885.005.084 0 .157-.011.23 0 0 .329-.506.152-1.401a7.482 7.482 0 006.656-7.433z" fill="#000"/></g><path d="M99.92 73.71v.292c-.291.016-.49.078-.583.187-.083.115-.125.329-.125.646v7.563c.667-.76 1.313-1.5 1.938-2.209.635-.708 1.218-1.364 1.75-1.979a149.37 149.37 0 011.479-1.646c.442-.5.802-.921 1.083-1.27.193-.22.344-.396.458-.521.11-.125.188-.23.23-.313.052-.083.088-.135.104-.166a.145.145 0 00.041-.105c0-.125-.093-.187-.27-.187v-.292h3.395v.292a1.726 1.726 0 00-.437.146c-.125.073-.25.156-.375.25a4.87 4.87 0 00-.417.375c-.14.14-.307.312-.5.52l-4.625 5.313 5.875 9.375c.209.35.38.594.521.73a.854.854 0 00.563.187v.291h-3.313v-.291c.261 0 .396-.073.396-.23 0-.083-.057-.213-.167-.395l-2.333-3.688a248.885 248.885 0 01-1.542-2.479l-1.271-2.083-2.583 3v5.02c0 .323.042.542.125.667.083.115.276.177.583.188v.291h-3.354v-.291c.292-.01.485-.073.584-.188.093-.11.145-.323.145-.646V74.835c0-.291-.052-.5-.145-.625-.084-.125-.282-.192-.584-.208v-.292h3.354zm17.616 2.834v.291c-.25.032-.417.084-.5.167-.083.073-.125.224-.125.458v12.813c0 .25.042.411.125.479.083.073.25.12.5.146v.291h-2.875v-.291c.234-.026.396-.068.479-.125.094-.068.146-.235.146-.5V77.46c0-.234-.042-.385-.125-.458-.083-.083-.25-.135-.5-.167v-.291h2.875zm11.071 6.77c2.26 0 3.396-.885 3.396-2.666 0-.86-.333-1.526-1-2-.656-.469-1.516-.709-2.583-.709h-3.313v5.375h3.5zm.375-6.77c.719 0 1.365.104 1.938.312a4.15 4.15 0 011.479.896c.401.39.708.844.916 1.354.219.516.334 1.083.334 1.708 0 .948-.271 1.766-.813 2.459-.531.682-1.302 1.12-2.312 1.312l2.833 5.604c.125.266.255.448.396.542.151.1.354.162.604.188v.27h-2.833v-.291c.177-.052.271-.151.271-.292a.6.6 0 00-.042-.146 5.757 5.757 0 00-.167-.333c-.156-.26-.354-.615-.604-1.063-.24-.458-.552-1.067-.937-1.833a73.054 73.054 0 01-.855-1.667 23.071 23.071 0 00-.416-.854h-3.667v5.563c0 .208.026.364.083.458.052.083.188.14.396.167v.291h-2.604v-.291c.208-.026.339-.084.396-.167.052-.094.083-.25.083-.458V77.46c0-.208-.031-.354-.083-.437-.057-.094-.188-.156-.396-.188v-.291h6zm12.41 0v.291c-.25.032-.417.084-.5.167-.084.073-.125.224-.125.458v12.813c0 .25.041.411.125.479.083.073.25.12.5.146v.291h-2.875v-.291c.234-.026.396-.068.479-.125.094-.068.146-.235.146-.5V77.46c0-.234-.042-.385-.125-.458-.084-.083-.25-.135-.5-.167v-.291h2.875zm10.946-.23c.958 0 1.797.167 2.521.5.734.323 1.359.688 1.875 1.105.109.083.213.166.312.25.11.083.177.125.209.125.052 0 .125-.032.208-.105l.208.146-1.458 1.855-.208-.146v-.188c0-.234-.099-.479-.292-.729a3.053 3.053 0 00-.792-.688 4.256 4.256 0 00-1.146-.52 4.512 4.512 0 00-1.354-.209c-.807 0-1.5.203-2.083.605-.583.39-1.073.89-1.458 1.5a7.267 7.267 0 00-.855 1.958 7.824 7.824 0 00-.27 1.979c0 .849.104 1.656.312 2.417.208.75.505 1.416.896 2 .401.573.88 1.03 1.437 1.375.568.333 1.214.5 1.938.5.5 0 .979-.068 1.437-.209a5.734 5.734 0 001.25-.562c.36-.219.646-.459.855-.709.218-.26.333-.51.333-.75a.796.796 0 00-.042-.229 4.92 4.92 0 01-.083-.291l.167-.146 1.479 1.854-.146.125h-.125c-.125 0-.26.057-.396.167-.125.114-.349.307-.667.583-.656.573-1.312.974-1.979 1.208a6.246 6.246 0 01-2.083.355c-.99 0-1.87-.204-2.646-.605a5.843 5.843 0 01-1.937-1.625c-.532-.677-.933-1.479-1.209-2.395a9.972 9.972 0 01-.416-2.938c0-1.026.135-2 .416-2.917.292-.927.698-1.734 1.229-2.416a5.82 5.82 0 011.959-1.625c.776-.401 1.646-.605 2.604-.605zm10.681 7.563c0 .698.088 1.411.27 2.146.193.724.48 1.39.855 2a4.7 4.7 0 001.479 1.458c.609.375 1.344.563 2.208.563.802 0 1.511-.177 2.125-.542a4.6 4.6 0 001.5-1.417c.386-.583.677-1.24.875-1.979a8.745 8.745 0 00.292-2.229 8.71 8.71 0 00-.292-2.208 6.738 6.738 0 00-.875-1.98 4.654 4.654 0 00-1.5-1.416c-.614-.375-1.333-.563-2.167-.563-.833 0-1.552.188-2.145.563a4.595 4.595 0 00-1.48 1.437 6.512 6.512 0 00-.875 1.98 9.124 9.124 0 00-.27 2.187zm4.812-7.563c1.026 0 1.943.224 2.75.667.802.432 1.479 1 2.021 1.709.542.697.948 1.5 1.229 2.416a9.59 9.59 0 01.417 2.771c0 .89-.136 1.786-.396 2.688a7.596 7.596 0 01-1.208 2.416 6.366 6.366 0 01-2 1.771c-.808.458-1.745.688-2.813.688-1.083 0-2.031-.23-2.833-.688a6.581 6.581 0 01-2-1.77 8.037 8.037 0 01-1.209-2.418 9.483 9.483 0 01-.395-2.687c0-.927.135-1.844.416-2.75a7.78 7.78 0 011.209-2.417 6.189 6.189 0 012-1.729c.802-.443 1.739-.666 2.812-.666zm-91.254 31.952c.636 0 1.094-.109 1.375-.333.276-.219.417-.604.417-1.146 0-.526-.167-.906-.5-1.146-.323-.234-.77-.354-1.354-.354H74.89v2.979h1.687zm-.041-3.75a3.7 3.7 0 011.146.167c.343.115.63.271.854.479.234.198.406.432.52.708.126.282.188.584.188.917 0 .766-.224 1.328-.667 1.688-.448.364-1.12.541-2.02.541H74.89v3.021c0 .156.01.261.042.313.041.057.135.093.291.104v.125h-1.562v-.125c.15-.011.24-.047.27-.104.042-.068.063-.177.063-.334v-6.937c0-.151-.02-.255-.062-.313-.032-.067-.12-.104-.271-.104v-.146h2.875zm10.59.604l-1.229 4.313h2.5l-1.25-4.313h-.02zm.98-.604v.146c-.115.016-.167.063-.167.146 0 .042.02.141.062.292.052.156.146.416.271.791.11.391.219.761.333 1.104l.25.917c.094.307.177.557.25.75.052.24.136.542.25.917.11.364.22.724.334 1.083.125.406.25.828.375 1.271.01.083.026.156.041.208.026.058.047.104.063.146a.328.328 0 00.104.104c.042.016.094.037.167.063v.125h-1.375v-.125a.338.338 0 00.146-.021c.026-.01.041-.047.041-.104a.375.375 0 00-.041-.125 2.34 2.34 0 01-.042-.229l-.542-1.792h-2.958c-.167.583-.308 1.062-.417 1.437-.114.365-.166.584-.166.667 0 .057.02.099.062.125.052.016.11.031.167.042v.125H84v-.125c.11-.042.177-.089.209-.146a1.37 1.37 0 00.125-.333c.177-.568.333-1.089.458-1.563.052-.193.11-.385.166-.583a7.27 7.27 0 01.167-.563c.052-.166.094-.312.125-.437.042-.125.068-.209.084-.25.01-.042.03-.11.062-.209.026-.109.052-.229.083-.354.042-.135.084-.281.125-.437.052-.167.105-.323.146-.479.11-.36.23-.756.354-1.188.094-.302.172-.552.23-.75.052-.193.083-.302.083-.333 0-.11-.063-.167-.188-.167v-.146h1.875zm9.069 0v.146c-.14 0-.23.031-.27.083-.043.042-.063.141-.063.292v6.792h3.458c.135 0 .234-.011.292-.042.067-.026.125-.104.166-.229h.125v1.312h-.125a.53.53 0 00-.146-.25c-.041-.031-.14-.041-.291-.041h-4.688v-.125c.125-.011.209-.042.25-.084.042-.052.063-.156.063-.312v-7.042c0-.135-.021-.229-.063-.271-.041-.052-.125-.083-.25-.083v-.146h1.542zm14.295-.25v1.271h-.125c-.031-.125-.083-.193-.166-.208a.869.869 0 00-.292-.042h-3.646v2.792h2.375c.151 0 .255-.011.313-.042.067-.026.114-.104.145-.229h.125v1.375h-.125c-.031-.151-.072-.24-.125-.271-.057-.042-.161-.062-.312-.062h-2.396v2.979h3.771c.135 0 .24-.011.312-.042.068-.026.115-.104.146-.229h.125v1.312h-.125c-.031-.125-.078-.208-.146-.25-.057-.031-.161-.041-.312-.041h-5v-.125c.135-.011.229-.042.271-.084.041-.052.062-.166.062-.333v-6.979c0-.151-.021-.255-.062-.313-.042-.052-.136-.083-.271-.083v-.146h4.875c.151 0 .255-.01.312-.041.068-.026.115-.094.146-.209h.125zm8.424.146c.375 0 .714.063 1.021.188.318.125.583.25.792.375.067.041.135.093.208.145.068.042.135.084.208.125l.167.105a.246.246 0 00.104.041.423.423 0 00.146-.021l.062.042-.791 1.188-.104-.084a.695.695 0 00.041-.25c0-.067-.052-.166-.146-.291a1.803 1.803 0 00-.395-.355 2.185 2.185 0 00-.625-.312 2.09 2.09 0 00-.771-.146c-.459 0-.844.115-1.146.333-.292.224-.531.5-.708.834a3.692 3.692 0 00-.396 1.083 5.657 5.657 0 00-.125 1.146c0 .391.041.792.125 1.208.093.407.234.766.416 1.084.177.323.417.583.709.791.302.198.677.292 1.125.292.25 0 .484-.031.708-.104.234-.068.443-.156.625-.271a1.86 1.86 0 00.438-.417.777.777 0 00.166-.458v-.229l.084-.063.875 1.104-.084.042h-.083c-.073 0-.162.042-.271.125-.099.083-.198.167-.292.25a4.16 4.16 0 01-.979.583 2.972 2.972 0 01-1.083.188c-.573 0-1.073-.104-1.5-.313a2.865 2.865 0 01-1.042-.875 4.11 4.11 0 01-.604-1.312 5.972 5.972 0 01-.208-1.625c0-.583.067-1.125.208-1.625.135-.5.339-.938.604-1.313a2.874 2.874 0 011.042-.875c.417-.218.906-.333 1.479-.333zm13.549-.146v1.271h-.125c-.031-.125-.084-.193-.167-.208a.869.869 0 00-.292-.042h-3.645v2.792h2.375c.151 0 .255-.011.312-.042.068-.026.115-.104.146-.229h.125v1.375h-.125c-.031-.151-.073-.24-.125-.271-.057-.042-.162-.062-.313-.062h-2.395v2.979h3.77c.136 0 .24-.011.313-.042.068-.026.115-.104.146-.229h.125v1.312h-.125c-.031-.125-.078-.208-.146-.25-.057-.031-.162-.041-.313-.041h-5v-.125c.136-.011.23-.042.271-.084.042-.052.063-.166.063-.333v-6.979c0-.151-.021-.255-.063-.313-.041-.052-.135-.083-.271-.083v-.146h4.875c.151 0 .256-.01.313-.041.068-.026.115-.094.146-.209h.125zm14.696.25v.146c-.141 0-.229.031-.271.083-.041.058-.062.157-.062.292v3.042h3.958v-3.021c0-.135-.021-.234-.062-.292-.042-.067-.136-.104-.271-.104v-.146h1.541v.146c-.125 0-.218.031-.27.083-.042.058-.063.157-.063.292v7.021c0 .156.021.26.063.312a.516.516 0 00.27.084v.125h-1.541v-.125c.125-.011.208-.042.25-.084.052-.052.083-.156.083-.312v-3.208h-3.958v3.208c0 .156.021.26.062.312.042.042.13.073.271.084v.125h-1.562v-.125c.135-.011.229-.042.27-.084.042-.052.063-.156.063-.312v-7.021c0-.125-.021-.213-.063-.271-.031-.067-.119-.104-.27-.104v-.146h1.562zm11.087 4.042c0 .458.047.896.146 1.312.094.407.24.766.438 1.084.208.307.463.552.771.729.317.167.687.25 1.104.25.416 0 .776-.083 1.083-.25.302-.177.552-.422.75-.729.208-.302.36-.667.458-1.084a5.94 5.94 0 00.021-2.52 3.487 3.487 0 00-.416-1.084 2.119 2.119 0 00-.75-.791c-.308-.209-.698-.313-1.167-.313-.448 0-.828.099-1.146.292a2.288 2.288 0 00-.75.791 4.1 4.1 0 00-.417 1.084c-.083.39-.125.802-.125 1.229zm2.459-4.146c.568 0 1.062.125 1.479.375.417.24.76.552 1.042.938.276.39.479.833.604 1.333.135.49.208.99.208 1.5 0 .5-.073.995-.208 1.479-.125.49-.328.932-.604 1.333a3.462 3.462 0 01-1.042.959c-.417.239-.911.354-1.479.354-.573 0-1.063-.115-1.479-.354a3.155 3.155 0 01-1.042-.938 4.024 4.024 0 01-.625-1.333 6.045 6.045 0 010-3c.135-.5.344-.943.625-1.333a3.268 3.268 0 011.042-.938c.416-.25.906-.375 1.479-.375zm8.063-.146h.146c.026.125.068.203.125.229.068.016.177.021.333.021h4.667c.135 0 .234-.01.292-.041.067-.026.114-.094.145-.209h.146v1.271h-.146c-.031-.125-.078-.193-.145-.208a.869.869 0 00-.292-.042h-1.896v6.771c0 .156.021.26.063.312.041.042.13.073.27.084v.125h-1.562v-.125c.125-.011.208-.042.25-.084.052-.052.083-.156.083-.312v-6.771h-1.875a.992.992 0 00-.333.042c-.057.031-.099.099-.125.208h-.146v-1.271zm16.483 0v1.271h-.125c-.031-.125-.083-.193-.167-.208a.862.862 0 00-.291-.042h-3.646v2.792h2.375c.151 0 .255-.011.312-.042.068-.026.115-.104.146-.229h.125v1.375h-.125c-.031-.151-.073-.24-.125-.271-.057-.042-.161-.062-.312-.062h-2.396v2.979h3.771a.839.839 0 00.312-.042c.068-.026.115-.104.146-.229h.125v1.312h-.125c-.031-.125-.078-.208-.146-.25-.057-.031-.161-.041-.312-.041h-5v-.125c.135-.011.229-.042.27-.084.042-.052.063-.166.063-.333v-6.979c0-.151-.021-.255-.063-.313-.041-.052-.135-.083-.27-.083v-.146h4.875c.151 0 .255-.01.312-.041.068-.026.115-.094.146-.209h.125zm7.069.25v.146c-.14 0-.229.031-.27.083-.042.042-.063.141-.063.292v6.792h3.458c.136 0 .235-.011.292-.042.068-.026.125-.104.167-.229h.125v1.312h-.125a.547.547 0 00-.146-.25c-.042-.031-.141-.041-.292-.041h-4.687v-.125c.125-.011.208-.042.25-.084.041-.052.062-.156.062-.312v-7.042c0-.135-.021-.229-.062-.271-.042-.052-.125-.083-.25-.083v-.146h1.541z" fill="#000"/></svg>