<svg width="271" height="113" viewBox="0 0 271 113" fill="none" xmlns="http://www.w3.org/2000/svg">
<mask id="mask0_1_94" style="mask-type:luminance" maskUnits="userSpaceOnUse" x="69" y="0" width="132" height="57">
<path d="M69 0.213547H201V57H69V0.213547Z" fill="white"/>
</mask>
<g mask="url(#mask0_1_94)">
<path d="M129.693 28.375C129.693 29.9115 130.578 32.3229 132.458 34.7396C132.677 35.0677 132.901 35.2865 133.229 35.6198V39.2396C132.016 38.5833 129.359 37.1562 126.266 36.4948C126.708 38.0312 126.156 39.3542 124.38 39.3542C123.057 39.3542 122.063 38.5833 120.734 38.5833C119.297 38.5833 118.417 39.3542 118.417 40.2292C118.417 41.1042 118.526 42.0937 119.188 43.1927C118.964 43.1927 116.094 42.2031 116.094 40.2292C116.094 38.3594 116.979 37.0469 118.302 36.276C111.115 37.2656 105.365 40.6667 100.167 44.401C100.391 46.0469 100.943 47.5833 101.719 48.7917C101.938 46.2656 103.375 43.3021 106.802 43.3021C109.682 43.3021 112.557 44.1823 113.219 48.4635C112.443 48.1354 111.563 47.8073 110.344 47.8073C109.349 47.8073 108.24 49.2344 108.24 50.3281C108.24 52.4167 110.234 54.5 113.552 54.5C122.063 54.5 124.495 48.1354 124.385 44.2917H125.714C125.714 53.0729 119.302 56.8073 113.552 56.8073C105.036 56.8073 100.063 52.0885 98.5156 45.6094C91.2083 50.9896 84.7969 56.5885 76.724 56.5885C73.1927 56.5885 69.8698 55.2708 69.8698 51.3177C69.8698 47.3646 72.3021 46.4844 74.2917 46.4844C76.6146 46.4844 78.3854 48.1302 78.3854 49.6719C78.3854 51.5365 76.5052 52.3073 75.401 51.8646C75.9531 51.3177 76.1719 50.7708 76.1719 49.7812C76.1719 48.901 74.9583 47.8073 73.849 47.8073C71.8646 47.8073 70.8646 49.3437 70.8646 51.3177C70.8646 53.8437 72.7448 55.0521 75.401 55.0521C81.0365 55.0521 82.9167 43.6354 88.6667 43.6354C91.4375 43.6354 91.9896 45.7187 91.9896 46.4896C91.9896 47.1458 91.7656 48.7917 91.7656 48.7917C93.8646 47.3646 95.9635 45.7187 98.2865 43.9635C98.1771 43.0833 98.0677 42.2083 98.0677 41.2187C98.0677 40.5625 98.0677 39.7917 98.1771 39.1302C93.0885 39.6771 90.7708 36.0573 90.7708 33.6406C90.7708 31.2292 92.3177 29.4687 94.75 29.4687C96.3021 29.4687 97.5156 30.8958 97.5156 32.3229C97.5156 33.4219 97.0729 34.1927 95.7448 34.1927C94.75 34.1927 94.1979 33.3125 94.1979 32.7656C94.1979 31.4479 95.4115 31.5573 95.4115 31.1146C95.0833 30.6771 94.5313 30.8958 94.0833 30.8958C93.2031 30.8958 91.875 31.8854 91.875 33.4219C91.875 36.6042 95.0833 38.1458 98.401 37.9219C99.9479 29.9115 107.245 25.2969 114.323 25.2969C120.073 25.2969 124.828 27.6042 129.031 31.3385C128.479 30.4583 128.031 29.25 128.031 27.8229C128.031 26.0677 128.698 24.6354 130.245 24.6354C132.24 24.6354 133.229 25.9531 133.677 27.3802C131.682 26.724 129.693 27.0521 129.693 28.375ZM87.3385 49.8906C86.125 49.8906 84.6875 51.974 83.0313 54.2812C84.1354 53.7344 86.901 52.3073 88.3333 51.099C88.3333 50.5469 88.224 49.8906 87.3385 49.8906ZM101.057 38.5833C100.391 40.0104 100.063 41.4375 100.063 42.6406C103.708 40.1198 107.688 37.5937 112.333 35.9479C108.688 36.6042 104.37 37.7031 101.057 38.5833ZM117.198 27.0521C117.974 27.9323 118.083 28.0417 118.083 29.0312C118.083 30.6771 117.198 31.776 114.656 31.776C113.438 31.776 112.224 31.3385 111.229 31.3385C107.026 31.3385 103.818 34.0833 101.938 37.0469C106.25 35.8385 112.443 34.0833 119.854 34.0833C119.406 33.75 119.188 33.2031 119.188 32.4323C119.188 31.4479 119.63 30.6771 120.953 30.1302C120.849 32.1042 122.063 32.875 124.495 32.875C126.38 32.875 126.932 33.5312 126.932 34.4115L126.708 35.0677C129.031 35.7292 131.578 36.6042 132.682 37.0469C127.37 30.7865 122.281 27.1615 117.198 27.0521ZM132.677 20.026C132.458 19.151 131.797 17.1719 130.688 17.1719C128.146 17.1719 125.823 18.9323 123.281 18.9323C121.401 18.9323 118.964 17.5052 118.964 15.4167C118.964 14.5365 119.63 13.9896 120.516 13.8802C120.406 14.2083 120.292 14.5365 120.292 14.8698C120.292 15.526 120.734 16.0781 121.401 16.0781C123.609 16.0781 125.38 14.4271 127.594 14.4271C128.255 14.4271 128.922 14.651 129.578 14.8698C128.255 13.8802 126.375 12.8906 124.719 12.5625C119.188 11.6823 112 8.71875 112.776 3.01041C112.995 1.14583 114.542 0.26562 115.87 0.48437C115.208 1.03645 114.542 1.47395 114.542 2.35416C114.542 5.53645 118.635 5.64583 120.953 5.64583C123.391 5.64583 128.479 5.09895 128.479 8.9427C128.479 10.2552 127.37 11.2448 126.156 11.4635C129.474 13.1094 132.786 15.3073 133.563 19.151L132.677 20.026ZM193.057 56.5885C184.979 56.5885 178.573 50.9896 171.271 45.6094C169.833 52.0885 164.75 56.8073 156.229 56.8073C150.594 56.8073 144.068 53.0729 144.068 44.2917H145.396C145.396 48.1354 147.823 54.5 156.229 54.5C159.552 54.5 161.542 52.4167 161.542 50.3281C161.542 49.2344 160.432 47.8073 159.438 47.8073C158.224 47.8073 157.339 48.1354 156.563 48.4635C157.224 44.1823 160.099 43.3021 162.979 43.3021C166.516 43.3021 167.844 46.2656 168.063 48.7917C168.839 47.5833 169.391 46.0469 169.615 44.401C164.417 40.6667 158.667 37.2656 151.479 36.276C152.802 37.0469 153.688 38.3594 153.688 40.2292C153.688 42.2083 150.813 43.1927 150.594 43.1927C151.255 42.099 151.365 41.1094 151.365 40.2292C151.365 39.3542 150.594 38.5833 149.047 38.5833C147.714 38.5833 146.724 39.3542 145.396 39.3542C143.625 39.3542 143.073 38.0312 143.516 36.4948C140.422 37.1562 137.766 38.5833 136.552 39.2396V35.6198L137.432 34.7396C139.313 32.3229 140.089 29.9115 140.089 28.375C140.089 27.0573 138.099 26.724 136.104 27.3854C136.552 25.9583 137.542 24.6406 139.531 24.6406C141.083 24.6406 141.745 26.0677 141.745 27.8229C141.745 29.25 141.302 30.4583 140.75 31.3385C145.063 27.6042 149.708 25.2969 155.453 25.2969C162.646 25.2969 169.833 29.9115 171.38 37.9271C174.698 38.1458 177.906 36.6042 177.906 33.4219C177.906 31.8854 176.688 30.8958 175.698 30.8958C175.25 30.8958 174.698 30.6771 174.365 31.1146C174.365 31.5573 175.583 31.4479 175.583 32.7656C175.583 33.3125 175.141 34.1927 174.036 34.1927C172.708 34.1927 172.266 33.4219 172.266 32.3229C172.266 30.8958 173.479 29.4687 175.026 29.4687C177.464 29.4687 179.01 31.2292 179.01 33.6458C179.01 36.0573 176.688 39.6823 171.599 39.1354C171.708 39.7917 171.708 40.5625 171.708 41.2187C171.708 42.2083 171.708 43.0833 171.599 43.9635C173.818 45.7187 176.021 47.3646 178.016 48.7917C178.016 48.7917 177.797 47.1458 177.797 46.4896C177.797 45.7187 178.458 43.6354 181.115 43.6354C186.865 43.6354 188.745 55.0521 194.38 55.0521C197.031 55.0521 198.917 53.8437 198.917 51.3177C198.917 49.3437 197.917 47.8073 195.927 47.8073C194.823 47.8073 193.604 48.901 193.604 49.7812C193.604 50.7708 193.828 51.3177 194.38 51.8698C193.276 52.3073 191.396 51.5365 191.396 49.6719C191.396 48.1354 193.276 46.4896 195.49 46.4896C197.474 46.4896 199.911 47.3646 199.911 51.3177C199.911 55.2656 196.594 56.5885 193.057 56.5885ZM145.063 12.5625C143.401 12.8906 141.526 13.8802 140.198 14.8698C140.859 14.651 141.526 14.4271 142.188 14.4271C144.401 14.4271 146.172 16.0781 148.38 16.0781C149.156 16.0781 149.484 15.526 149.484 14.8698C149.484 14.5365 149.484 14.2083 149.266 13.8802C150.151 13.9896 150.813 14.5365 150.813 15.4167C150.813 17.5052 148.495 18.9323 146.5 18.9323C143.958 18.9323 141.745 17.1719 139.094 17.1719C137.984 17.1719 137.323 19.151 137.104 20.026L136.219 19.151C136.99 15.3073 140.307 13.1094 143.625 11.4635C142.406 11.2448 141.302 10.2552 141.302 8.9427C141.302 5.09895 146.5 5.64583 148.823 5.64583C151.146 5.64583 155.234 5.53645 155.234 2.35416C155.234 1.47395 154.682 1.03645 153.911 0.48437C155.234 0.26562 156.781 1.14583 157.005 3.01041C157.781 8.71875 150.594 11.6823 145.063 12.5625ZM158.552 31.3385C157.557 31.3385 156.344 31.776 155.125 31.776C152.693 31.776 151.698 30.6771 151.698 29.0312C151.698 28.0417 151.922 27.9323 152.583 27.0521C147.495 27.1667 142.406 30.7865 137.104 37.0469C138.208 36.6042 140.75 35.7292 143.073 35.0677L142.854 34.4115C142.854 33.5312 143.401 32.875 145.281 32.875C147.714 32.875 148.932 32.1042 148.823 30.1302C150.151 30.6771 150.594 31.4479 150.594 32.4323C150.594 33.2031 150.375 33.75 149.927 34.0833C157.339 34.0833 163.531 35.8385 167.953 37.0469C165.964 34.0833 162.755 31.3385 158.552 31.3385ZM168.724 38.5833C165.411 37.7031 161.099 36.6042 157.448 35.9479C162.094 37.5937 166.073 40.1198 169.724 42.6458C169.724 41.4375 169.391 40.0104 168.724 38.5833ZM182.438 49.8906C181.552 49.8906 181.448 50.5469 181.448 51.099C182.88 52.3073 185.646 53.7344 186.75 54.2812C185.094 51.974 183.656 49.8906 182.438 49.8906Z" fill="black"/>
</g>
<path d="M27.9427 59.4115C27.6302 58.1823 26.7031 55.4219 25.1562 55.4219C21.6042 55.4219 18.3594 57.875 14.8021 57.875C12.1771 57.875 8.77083 55.8802 8.77083 52.9635C8.77083 51.7344 9.70312 50.9688 10.9375 50.8125C10.7865 51.276 10.625 51.7344 10.625 52.1979C10.625 53.1198 11.2448 53.8854 12.1771 53.8854C15.2604 53.8854 17.7396 51.5833 20.8281 51.5833C21.7552 51.5833 22.6875 51.8906 23.6094 52.1979C21.7552 50.8125 19.1302 49.4323 16.8125 48.974C9.07812 47.7448 -0.96355 43.599 0.114575 35.6198C0.421866 33.0104 2.58853 31.7865 4.4427 32.0885C3.52083 32.8594 2.58853 33.4688 2.58853 34.7031C2.58853 39.151 8.30729 39.3073 11.5521 39.3073C14.9531 39.3073 22.0677 38.5365 22.0677 43.9115C22.0677 45.75 20.5208 47.1302 18.8229 47.4375C23.4583 49.7396 28.0937 52.8125 29.1771 58.1823L27.9427 59.4115Z" fill="black"/>
<path d="M240.896 58.1823C241.979 52.8125 246.609 49.7396 251.245 47.4375C249.552 47.1302 248.005 45.75 248.005 43.9115C248.005 38.5365 255.115 39.3073 258.521 39.3073C261.766 39.3073 267.484 39.151 267.484 34.7031C267.484 33.4688 266.552 32.8594 265.63 32.0885C267.484 31.7865 269.646 33.0104 269.953 35.6198C271.036 43.599 260.995 47.7448 253.26 48.974C250.943 49.4323 248.318 50.8125 246.464 52.1979C247.385 51.8906 248.318 51.5833 249.24 51.5833C252.328 51.5833 254.807 53.8854 257.896 53.8854C258.828 53.8854 259.443 53.1198 259.443 52.1979C259.443 51.7344 259.286 51.276 259.135 50.8125C260.37 50.9688 261.302 51.7344 261.302 52.9635C261.302 55.8802 257.896 57.875 255.266 57.875C251.714 57.875 248.469 55.4219 244.917 55.4219C243.365 55.4219 242.443 58.1823 242.13 59.4115L240.896 58.1823Z" fill="black"/>
<path d="M233.984 61.8646C230.62 64.3125 225.109 67.5156 206.859 65.6927C201.88 65.2031 196.948 64.4479 191.927 63.6927C188.786 63.2448 185.604 62.8437 182.422 62.5312C180.177 62.3125 174.526 61.7292 172.422 61.9531C170.224 62.1771 169.37 62.9323 169.323 63.3333C169.323 63.4219 169.281 63.6042 169.37 63.6927C169.417 63.9583 169.599 64.1354 169.599 64.3125C169.552 64.7135 168.521 65.1146 167.578 65.026C166.953 64.9844 166.323 64.5833 166.365 64.0469C166.453 63.5573 168.026 61.6406 171.792 61.1094C174.844 60.7083 178.339 61.1094 190.313 62.2656C205.198 63.7344 215.198 63.7812 222.776 61.2448C228.333 59.4167 236.766 54.6979 237.573 47.9739C238.333 41.9687 233 39.0729 228.516 38.625C219.234 37.7344 209.906 45.8385 209.188 51.5364C208.786 54.6979 211.521 56.4375 214.432 56.7031C217.531 57.0156 220.042 55.7656 222.24 54.1667C226.182 51.2708 226.63 49.1771 226.766 48.1979C226.901 47.1771 226.724 46.3281 226.229 45.7083C225.823 45.2187 225.51 45.1719 224.974 45.125C224.75 45.125 224.391 45.0833 224.432 44.724C224.479 44.2344 224.974 44.2812 225.156 44.3229C226.63 44.4583 228.516 46.2396 228.156 49.1771C227.531 54.0312 221.339 58.1719 214.703 57.5C209.276 56.9687 206.813 53.0052 207.307 49.2239C208.115 42.6354 217.797 36.2239 227.078 37.1562C235.422 37.9583 241.026 44.5937 240.13 52.0729C239.589 56.3021 237.26 59.4635 233.984 61.8646Z" fill="black"/>
<path d="M30.2344 52.7188C29.3385 45.2396 34.9427 38.6042 43.2865 37.8021C52.5677 36.8698 62.25 43.2813 63.0625 49.8698C63.5521 53.651 61.0885 57.6146 55.6615 58.1458C49.026 58.8177 42.8385 54.6771 42.2083 49.8229C41.849 46.8854 43.7344 45.1042 45.2135 44.9688C45.3958 44.9271 45.8854 44.8802 45.9323 45.3698C45.974 45.7292 45.6198 45.7708 45.3958 45.7708C44.8542 45.8177 44.5417 45.8646 44.1354 46.349C43.6458 46.974 43.4635 47.8229 43.599 48.8438C43.7344 49.8229 44.1823 51.9167 48.1302 54.8125C50.3229 56.4115 52.8333 57.6615 55.9323 57.349C58.8437 57.0781 61.5781 55.3438 61.1771 52.1823C60.4583 46.4844 51.1302 38.3802 41.849 39.2708C37.3646 39.7188 32.0312 42.6094 32.7917 48.6198C33.599 55.3438 42.026 60.0625 47.5885 61.8906C55.1667 64.4271 65.1667 64.3802 80.0521 62.9115C92.026 61.7552 95.5208 61.3542 98.5729 61.7552C102.339 62.2917 103.911 64.2031 104 64.6927C104.042 65.2292 103.417 65.6302 102.786 65.6719C101.844 65.7604 100.812 65.3594 100.771 64.9583C100.771 64.7813 100.948 64.6042 100.995 64.3385C101.083 64.25 101.042 64.0729 101.042 63.9844C100.995 63.5833 100.141 62.8229 97.9427 62.599C95.8385 62.3802 90.1875 62.9583 87.9427 63.1771C84.7604 63.4896 81.5781 63.8906 78.4375 64.3385C73.4167 65.0938 68.4844 65.849 63.5052 66.3438C45.2604 68.1667 39.7448 64.9583 36.3802 62.5104C33.1094 60.1094 30.776 56.9479 30.2344 52.7188Z" fill="black"/>
<path d="M29.8542 98.6875H240.146" stroke="black" stroke-width="2"/>
<mask id="mask1_1_94" style="mask-type:luminance" maskUnits="userSpaceOnUse" x="127" y="51" width="16" height="18">
<path d="M127.516 51.7917H142.469V68.6875H127.516V51.7917Z" fill="white"/>
</mask>
<g mask="url(#mask1_1_94)">
<path d="M142.469 59.8542C142.469 57.3438 141.234 55.125 139.339 53.7656C139.156 52.4219 137.943 51.7917 137.943 51.7917C138.323 52.2813 138.568 52.849 138.563 53.4635C138.552 54.3906 137.953 55.2292 137.198 55.7708C136.448 56.3073 135.547 56.599 134.667 56.8854C133.781 57.1719 132.885 57.4688 132.141 58.0208C131.422 58.5521 130.854 59.3958 130.958 60.2813C130.76 59.5313 130.594 58.7344 130.719 57.9583C130.849 57.1563 131.297 56.5677 131.943 56.1042C132.693 55.5365 133.641 55.1927 134.5 54.8177C135.214 54.5104 135.943 54.2448 136.625 53.8698C137.031 53.651 137.422 53.3802 137.724 53.026C137.75 52.9896 137.776 52.9583 137.802 52.9219C136.932 52.5729 135.984 52.375 134.995 52.375C130.865 52.375 127.516 55.724 127.516 59.8542C127.516 63.9479 130.807 67.2708 134.885 67.3281C134.177 66.375 133.25 65.599 132.505 64.6719C131.682 63.651 131.068 62.3073 131.432 61.0469C131.708 60.0938 132.344 59.4531 133.219 58.9844C134.089 58.5156 135.125 58.3542 136.052 58.0104C136.979 57.6667 138.328 57.3385 138.625 56.2604C138.823 57.1458 138.276 57.9375 137.542 58.4583C136.802 58.9792 135.88 59.3385 135.057 59.7083C134.229 60.0781 133.411 60.625 133.089 61.4688C132.745 62.3594 133.036 63.3802 133.516 64.2031C134 65.0313 134.656 65.7448 135.13 66.5729C135.453 67.1458 135.682 67.8125 135.672 68.4583C135.677 68.5417 135.672 68.6146 135.661 68.6875C135.661 68.6875 135.99 68.1823 135.813 67.2865C139.557 66.875 142.469 63.7031 142.469 59.8542Z" fill="black"/>
</g>
<path d="M99.9204 73.7103V74.0019C99.6288 74.0176 99.4309 74.0801 99.3371 74.1894C99.2538 74.304 99.2121 74.5176 99.2121 74.8353V82.3978C99.8788 81.6374 100.525 80.8978 101.15 80.1894C101.785 79.4811 102.368 78.8248 102.9 78.2103C103.441 77.6009 103.931 77.054 104.379 76.5644C104.821 76.0644 105.181 75.6426 105.462 75.2936C105.655 75.0748 105.806 74.8978 105.92 74.7728C106.03 74.6478 106.108 74.5436 106.15 74.4603C106.202 74.3769 106.238 74.3248 106.254 74.2936C106.28 74.2676 106.295 74.2311 106.295 74.1894C106.295 74.0644 106.202 74.0019 106.025 74.0019V73.7103H109.42V74.0019C109.264 74.0332 109.118 74.0801 108.983 74.1478C108.858 74.2207 108.733 74.304 108.608 74.3978C108.483 74.4967 108.342 74.6217 108.191 74.7728C108.051 74.9134 107.884 75.0853 107.691 75.2936L103.066 80.6061L108.941 89.9811C109.15 90.3301 109.321 90.5748 109.462 90.7103C109.613 90.8353 109.801 90.8978 110.025 90.8978V91.1894H106.712V90.8978C106.973 90.8978 107.108 90.8248 107.108 90.6686C107.108 90.5853 107.051 90.4551 106.941 90.2728L104.608 86.5853C104.051 85.6998 103.535 84.8717 103.066 84.1061C102.592 83.3301 102.17 82.6374 101.795 82.0228L99.2121 85.0228V90.0436C99.2121 90.3665 99.2538 90.5853 99.3371 90.7103C99.4204 90.8248 99.6131 90.8874 99.9204 90.8978V91.1894H96.5663V90.8978C96.8579 90.8874 97.0506 90.8248 97.1496 90.7103C97.2434 90.6009 97.2954 90.3874 97.2954 90.0644V74.8353C97.2954 74.5436 97.2434 74.3353 97.1496 74.2103C97.0663 74.0853 96.8684 74.0176 96.5663 74.0019V73.7103H99.9204Z" fill="black"/>
<path d="M117.536 76.5436V76.8353C117.286 76.8665 117.119 76.9186 117.036 77.0019C116.953 77.0749 116.911 77.2259 116.911 77.4603V90.2728C116.911 90.5228 116.953 90.6842 117.036 90.7519C117.119 90.8249 117.286 90.8717 117.536 90.8978V91.1894H114.661V90.8978C114.895 90.8717 115.057 90.8301 115.14 90.7728C115.234 90.7051 115.286 90.5384 115.286 90.2728V77.4603C115.286 77.2259 115.244 77.0749 115.161 77.0019C115.078 76.9186 114.911 76.8665 114.661 76.8353V76.5436H117.536Z" fill="black"/>
<path d="M128.607 83.3144C130.867 83.3144 132.003 82.429 132.003 80.6478C132.003 79.7884 131.67 79.1217 131.003 78.6478C130.347 78.179 129.487 77.9394 128.42 77.9394H125.107V83.3144H128.607ZM128.982 76.5436C129.701 76.5436 130.347 76.6478 130.92 76.8561C131.503 77.0644 131.992 77.3665 132.399 77.7519C132.8 78.1426 133.107 78.5957 133.315 79.1061C133.534 79.6217 133.649 80.1894 133.649 80.8144C133.649 81.7624 133.378 82.5801 132.836 83.2728C132.305 83.9551 131.534 84.3926 130.524 84.5853L133.357 90.1894C133.482 90.4551 133.612 90.6374 133.753 90.7311C133.904 90.8301 134.107 90.8926 134.357 90.9186V91.1894H131.524V90.8978C131.701 90.8457 131.795 90.7467 131.795 90.6061C131.795 90.5801 131.779 90.5332 131.753 90.4603C131.722 90.3926 131.67 90.2832 131.586 90.1269C131.43 89.8665 131.232 89.5124 130.982 89.0644C130.742 88.6061 130.43 87.9967 130.045 87.2311C129.696 86.5644 129.409 86.0124 129.19 85.5644C128.982 85.1217 128.841 84.8353 128.774 84.7103H125.107V90.2728C125.107 90.4811 125.133 90.6374 125.19 90.7311C125.242 90.8144 125.378 90.8717 125.586 90.8978V91.1894H122.982V90.8978C123.19 90.8717 123.321 90.8144 123.378 90.7311C123.43 90.6374 123.461 90.4811 123.461 90.2728V77.4603C123.461 77.2519 123.43 77.1061 123.378 77.0228C123.321 76.929 123.19 76.8665 122.982 76.8353V76.5436H128.982Z" fill="black"/>
<path d="M141.392 76.5436V76.8353C141.142 76.8665 140.975 76.9186 140.892 77.0019C140.808 77.0749 140.767 77.2259 140.767 77.4603V90.2728C140.767 90.5228 140.808 90.6842 140.892 90.7519C140.975 90.8249 141.142 90.8717 141.392 90.8978V91.1894H138.517V90.8978C138.751 90.8717 138.913 90.8301 138.996 90.7728C139.09 90.7051 139.142 90.5384 139.142 90.2728V77.4603C139.142 77.2259 139.1 77.0749 139.017 77.0019C138.933 76.9186 138.767 76.8665 138.517 76.8353V76.5436H141.392Z" fill="black"/>
<path d="M152.338 76.3145C153.296 76.3145 154.135 76.4811 154.859 76.8145C155.593 77.1374 156.218 77.502 156.734 77.9186C156.843 78.002 156.947 78.0853 157.046 78.1686C157.156 78.252 157.223 78.2936 157.255 78.2936C157.307 78.2936 157.38 78.2624 157.463 78.1895L157.671 78.3353L156.213 80.1895L156.005 80.0436V79.8561C156.005 79.6217 155.906 79.377 155.713 79.127C155.515 78.877 155.255 78.6478 154.921 78.4395C154.588 78.2207 154.203 78.0436 153.775 77.9186C153.343 77.7832 152.89 77.7103 152.421 77.7103C151.614 77.7103 150.921 77.9134 150.338 78.3145C149.755 78.7051 149.265 79.2051 148.88 79.8145C148.505 80.4134 148.218 81.0645 148.025 81.7728C147.843 82.4707 147.755 83.127 147.755 83.752C147.755 84.6009 147.859 85.4082 148.067 86.1686C148.275 86.9186 148.572 87.5853 148.963 88.1686C149.364 88.7415 149.843 89.1999 150.4 89.5436C150.968 89.877 151.614 90.0436 152.338 90.0436C152.838 90.0436 153.317 89.9759 153.775 89.8353C154.244 89.6842 154.661 89.4967 155.025 89.2728C155.385 89.054 155.671 88.8145 155.88 88.5645C156.098 88.304 156.213 88.054 156.213 87.8145C156.213 87.7467 156.197 87.6686 156.171 87.5853C156.14 87.4915 156.114 87.3926 156.088 87.2936L156.255 87.1478L157.734 89.002L157.588 89.127H157.463C157.338 89.127 157.203 89.1842 157.067 89.2936C156.942 89.4082 156.718 89.6009 156.4 89.877C155.744 90.4499 155.088 90.8509 154.421 91.0853C153.755 91.3197 153.057 91.4395 152.338 91.4395C151.348 91.4395 150.468 91.2363 149.692 90.8353C148.927 90.4342 148.281 89.8926 147.755 89.2103C147.223 88.5332 146.822 87.7311 146.546 86.8145C146.265 85.8978 146.13 84.9186 146.13 83.877C146.13 82.8509 146.265 81.877 146.546 80.9603C146.838 80.0332 147.244 79.2259 147.775 78.5436C148.317 77.8509 148.968 77.3092 149.734 76.9186C150.51 76.5176 151.38 76.3145 152.338 76.3145Z" fill="black"/>
<path d="M163.019 83.877C163.019 84.5749 163.107 85.2884 163.289 86.0228C163.482 86.7467 163.769 87.4134 164.144 88.0228C164.529 88.6217 165.024 89.1061 165.623 89.4811C166.232 89.8561 166.967 90.0436 167.831 90.0436C168.633 90.0436 169.342 89.8665 169.956 89.502C170.565 89.1426 171.065 88.6686 171.456 88.0853C171.842 87.502 172.133 86.8457 172.331 86.1061C172.524 85.3717 172.623 84.627 172.623 83.877C172.623 83.1426 172.524 82.4082 172.331 81.6686C172.133 80.9342 171.842 80.2728 171.456 79.6895C171.065 79.1061 170.565 78.6374 169.956 78.2728C169.342 77.8978 168.623 77.7103 167.789 77.7103C166.956 77.7103 166.237 77.8978 165.644 78.2728C165.045 78.6374 164.55 79.1165 164.164 79.7103C163.774 80.2936 163.482 80.9551 163.289 81.6895C163.107 82.429 163.019 83.1582 163.019 83.877ZM167.831 76.3145C168.857 76.3145 169.774 76.5384 170.581 76.9811C171.383 77.4134 172.06 77.9811 172.602 78.6895C173.144 79.3874 173.55 80.1895 173.831 81.1061C174.107 82.0228 174.248 82.9499 174.248 83.877C174.248 84.7676 174.112 85.6634 173.852 86.5645C173.586 87.4551 173.185 88.2624 172.644 88.9811C172.112 89.7051 171.446 90.2936 170.644 90.752C169.836 91.2103 168.899 91.4395 167.831 91.4395C166.748 91.4395 165.8 91.2103 164.998 90.752C164.206 90.2936 163.539 89.7051 162.998 88.9811C162.467 88.2624 162.065 87.4551 161.789 86.5645C161.524 85.6634 161.394 84.7676 161.394 83.877C161.394 82.9499 161.529 82.0332 161.81 81.127C162.086 80.2259 162.487 79.4186 163.019 78.7103C163.56 77.9915 164.227 77.4134 165.019 76.9811C165.821 76.5384 166.758 76.3145 167.831 76.3145Z" fill="black"/>
<path d="M76.5774 108.266C77.2129 108.266 77.6712 108.157 77.9524 107.933C78.2285 107.714 78.3691 107.329 78.3691 106.787C78.3691 106.261 78.2024 105.881 77.8691 105.641C77.5462 105.407 77.0983 105.287 76.5149 105.287H74.8899V108.266H76.5774ZM76.5358 104.516C76.9629 104.516 77.3483 104.574 77.6816 104.683C78.0254 104.798 78.3118 104.954 78.5358 105.162C78.7702 105.36 78.942 105.594 79.0566 105.87C79.1816 106.152 79.2441 106.454 79.2441 106.787C79.2441 107.553 79.0202 108.115 78.5774 108.475C78.1295 108.839 77.4577 109.016 76.5566 109.016H74.8899V112.037C74.8899 112.193 74.9004 112.298 74.9316 112.35C74.9733 112.407 75.067 112.443 75.2233 112.454V112.579H73.6608V112.454C73.8118 112.443 73.9004 112.407 73.9316 112.35C73.9733 112.282 73.9941 112.173 73.9941 112.016V105.079C73.9941 104.928 73.9733 104.824 73.9316 104.766C73.9004 104.699 73.8118 104.662 73.6608 104.662V104.516H76.5358Z" fill="black"/>
<path d="M87.1262 105.12L85.897 109.433H88.397L87.147 105.12H87.1262ZM88.1053 104.516V104.662C87.9908 104.678 87.9387 104.725 87.9387 104.808C87.9387 104.85 87.9595 104.949 88.0012 105.1C88.0533 105.256 88.147 105.516 88.272 105.891C88.3814 106.282 88.4908 106.652 88.6053 106.995C88.6887 107.303 88.772 107.61 88.8553 107.912C88.9491 108.219 89.0324 108.469 89.1053 108.662C89.1574 108.902 89.2408 109.204 89.3553 109.579C89.4647 109.943 89.5741 110.303 89.6887 110.662C89.8137 111.068 89.9387 111.49 90.0637 111.933C90.0741 112.016 90.0897 112.089 90.1053 112.141C90.1314 112.199 90.1522 112.245 90.1678 112.287C90.1939 112.329 90.2303 112.365 90.272 112.391C90.3137 112.407 90.3658 112.428 90.4387 112.454V112.579H89.0637V112.454C89.1314 112.454 89.1783 112.449 89.2095 112.433C89.2355 112.423 89.2512 112.386 89.2512 112.329C89.2512 112.303 89.2355 112.261 89.2095 112.204C89.1939 112.136 89.1783 112.058 89.1678 111.975L88.6262 110.183H85.6678C85.5012 110.766 85.3605 111.245 85.2512 111.62C85.1366 111.985 85.0845 112.204 85.0845 112.287C85.0845 112.344 85.1053 112.386 85.147 112.412C85.1991 112.428 85.2564 112.443 85.3137 112.454V112.579H84.0012V112.454C84.1105 112.412 84.1783 112.365 84.2095 112.308C84.2512 112.24 84.2928 112.131 84.3345 111.975C84.5116 111.407 84.6678 110.886 84.7928 110.412C84.8449 110.219 84.9022 110.027 84.9595 109.829C85.0116 109.62 85.0689 109.433 85.1262 109.266C85.1783 109.1 85.2199 108.954 85.2512 108.829C85.2928 108.704 85.3189 108.62 85.3345 108.579C85.3449 108.537 85.3658 108.469 85.397 108.37C85.423 108.261 85.4491 108.141 85.4803 108.016C85.522 107.881 85.5637 107.735 85.6053 107.579C85.6574 107.412 85.7095 107.256 85.7512 107.1C85.8605 106.74 85.9803 106.344 86.1053 105.912C86.1991 105.61 86.2772 105.36 86.3345 105.162C86.3866 104.969 86.4178 104.86 86.4178 104.829C86.4178 104.719 86.3553 104.662 86.2303 104.662V104.516H88.1053Z" fill="black"/>
<path d="M97.1749 104.516V104.662C97.0343 104.662 96.9458 104.693 96.9041 104.745C96.8624 104.787 96.8416 104.886 96.8416 105.037V111.829H100.3C100.435 111.829 100.534 111.818 100.592 111.787C100.659 111.761 100.717 111.683 100.758 111.558H100.883V112.87H100.758C100.717 112.745 100.665 112.662 100.612 112.62C100.571 112.589 100.472 112.579 100.321 112.579H95.6333V112.454C95.7583 112.443 95.8416 112.412 95.8833 112.37C95.9249 112.318 95.9458 112.214 95.9458 112.058V105.016C95.9458 104.881 95.9249 104.787 95.8833 104.745C95.8416 104.693 95.7583 104.662 95.6333 104.662V104.516H97.1749Z" fill="black"/>
<path d="M111.47 104.266V105.537H111.345C111.314 105.412 111.262 105.344 111.179 105.329C111.106 105.303 111.012 105.287 110.887 105.287H107.241V108.079H109.616C109.767 108.079 109.871 108.068 109.929 108.037C109.996 108.011 110.043 107.933 110.074 107.808H110.199V109.183H110.074C110.043 109.032 110.002 108.943 109.949 108.912C109.892 108.87 109.788 108.85 109.637 108.85H107.241V111.829H111.012C111.147 111.829 111.252 111.818 111.324 111.787C111.392 111.761 111.439 111.683 111.47 111.558H111.595V112.87H111.47C111.439 112.745 111.392 112.662 111.324 112.62C111.267 112.589 111.163 112.579 111.012 112.579H106.012V112.454C106.147 112.443 106.241 112.412 106.283 112.37C106.324 112.318 106.345 112.204 106.345 112.037V105.058C106.345 104.907 106.324 104.803 106.283 104.745C106.241 104.693 106.147 104.662 106.012 104.662V104.516H110.887C111.038 104.516 111.142 104.506 111.199 104.475C111.267 104.449 111.314 104.381 111.345 104.266H111.47Z" fill="black"/>
<path d="M119.894 104.412C120.269 104.412 120.608 104.475 120.915 104.6C121.233 104.725 121.498 104.85 121.707 104.975C121.774 105.016 121.842 105.068 121.915 105.12C121.983 105.162 122.05 105.204 122.123 105.245C122.191 105.287 122.248 105.324 122.29 105.35C122.342 105.381 122.378 105.391 122.394 105.391C122.446 105.391 122.498 105.386 122.54 105.37L122.602 105.412L121.811 106.6L121.707 106.516C121.733 106.449 121.748 106.365 121.748 106.266C121.748 106.199 121.696 106.1 121.602 105.975C121.503 105.85 121.373 105.735 121.207 105.62C121.04 105.495 120.832 105.391 120.582 105.308C120.342 105.214 120.087 105.162 119.811 105.162C119.352 105.162 118.967 105.277 118.665 105.495C118.373 105.719 118.134 105.995 117.957 106.329C117.774 106.652 117.644 107.011 117.561 107.412C117.477 107.818 117.436 108.199 117.436 108.558C117.436 108.949 117.477 109.35 117.561 109.766C117.654 110.173 117.795 110.532 117.977 110.85C118.154 111.173 118.394 111.433 118.686 111.641C118.988 111.839 119.363 111.933 119.811 111.933C120.061 111.933 120.295 111.902 120.519 111.829C120.753 111.761 120.962 111.673 121.144 111.558C121.321 111.433 121.467 111.298 121.582 111.141C121.691 110.99 121.748 110.839 121.748 110.683V110.454L121.832 110.391L122.707 111.495L122.623 111.537H122.602C122.587 111.537 122.571 111.537 122.561 111.537C122.561 111.537 122.55 111.537 122.54 111.537C122.467 111.537 122.378 111.579 122.269 111.662C122.17 111.745 122.071 111.829 121.977 111.912C121.654 112.162 121.332 112.36 120.998 112.495C120.675 112.62 120.316 112.683 119.915 112.683C119.342 112.683 118.842 112.579 118.415 112.37C117.998 112.162 117.649 111.87 117.373 111.495C117.108 111.12 116.904 110.683 116.769 110.183C116.628 109.683 116.561 109.141 116.561 108.558C116.561 107.975 116.628 107.433 116.769 106.933C116.904 106.433 117.108 105.995 117.373 105.62C117.649 105.245 117.998 104.954 118.415 104.745C118.832 104.527 119.321 104.412 119.894 104.412Z" fill="black"/>
<path d="M133.443 104.266V105.537H133.318C133.287 105.412 133.234 105.344 133.151 105.329C133.078 105.303 132.984 105.287 132.859 105.287H129.214V108.079H131.589C131.74 108.079 131.844 108.068 131.901 108.037C131.969 108.011 132.016 107.933 132.047 107.808H132.172V109.183H132.047C132.016 109.032 131.974 108.943 131.922 108.912C131.865 108.87 131.76 108.85 131.609 108.85H129.214V111.829H132.984C133.12 111.829 133.224 111.818 133.297 111.787C133.365 111.761 133.412 111.683 133.443 111.558H133.568V112.87H133.443C133.412 112.745 133.365 112.662 133.297 112.62C133.24 112.589 133.135 112.579 132.984 112.579H127.984V112.454C128.12 112.443 128.214 112.412 128.255 112.37C128.297 112.318 128.318 112.204 128.318 112.037V105.058C128.318 104.907 128.297 104.803 128.255 104.745C128.214 104.693 128.12 104.662 127.984 104.662V104.516H132.859C133.01 104.516 133.115 104.506 133.172 104.475C133.24 104.449 133.287 104.381 133.318 104.266H133.443Z" fill="black"/>
<path d="M148.139 104.516V104.662C147.998 104.662 147.91 104.693 147.868 104.745C147.827 104.803 147.806 104.902 147.806 105.037V108.079H151.764V105.058C151.764 104.923 151.743 104.824 151.702 104.766C151.66 104.699 151.566 104.662 151.431 104.662V104.516H152.972V104.662C152.847 104.662 152.754 104.693 152.702 104.745C152.66 104.803 152.639 104.902 152.639 105.037V112.058C152.639 112.214 152.66 112.318 152.702 112.37C152.754 112.412 152.847 112.443 152.972 112.454V112.579H151.431V112.454C151.556 112.443 151.639 112.412 151.681 112.37C151.733 112.318 151.764 112.214 151.764 112.058V108.85H147.806V112.058C147.806 112.214 147.827 112.318 147.868 112.37C147.91 112.412 147.998 112.443 148.139 112.454V112.579H146.577V112.454C146.712 112.443 146.806 112.412 146.847 112.37C146.889 112.318 146.91 112.214 146.91 112.058V105.037C146.91 104.912 146.889 104.824 146.847 104.766C146.816 104.699 146.728 104.662 146.577 104.662V104.516H148.139Z" fill="black"/>
<path d="M159.226 108.558C159.226 109.016 159.273 109.454 159.372 109.87C159.466 110.277 159.612 110.636 159.81 110.954C160.018 111.261 160.273 111.506 160.581 111.683C160.898 111.85 161.268 111.933 161.685 111.933C162.101 111.933 162.461 111.85 162.768 111.683C163.07 111.506 163.32 111.261 163.518 110.954C163.726 110.652 163.878 110.287 163.976 109.87C164.07 109.454 164.122 109.016 164.122 108.558C164.122 108.157 164.081 107.756 163.997 107.35C163.914 106.949 163.773 106.589 163.581 106.266C163.398 105.933 163.148 105.673 162.831 105.475C162.523 105.266 162.133 105.162 161.664 105.162C161.216 105.162 160.836 105.261 160.518 105.454C160.211 105.652 159.961 105.912 159.768 106.245C159.586 106.568 159.445 106.928 159.351 107.329C159.268 107.719 159.226 108.131 159.226 108.558ZM161.685 104.412C162.253 104.412 162.747 104.537 163.164 104.787C163.581 105.027 163.924 105.339 164.206 105.725C164.482 106.115 164.685 106.558 164.81 107.058C164.945 107.548 165.018 108.048 165.018 108.558C165.018 109.058 164.945 109.553 164.81 110.037C164.685 110.527 164.482 110.969 164.206 111.37C163.924 111.761 163.581 112.079 163.164 112.329C162.747 112.568 162.253 112.683 161.685 112.683C161.112 112.683 160.622 112.568 160.206 112.329C159.789 112.094 159.44 111.782 159.164 111.391C158.883 111.006 158.674 110.558 158.539 110.058C158.414 109.558 158.351 109.058 158.351 108.558C158.351 108.048 158.414 107.548 158.539 107.058C158.674 106.558 158.883 106.115 159.164 105.725C159.44 105.339 159.789 105.027 160.206 104.787C160.622 104.537 161.112 104.412 161.685 104.412Z" fill="black"/>
<path d="M169.748 104.266H169.894C169.92 104.391 169.962 104.469 170.019 104.495C170.087 104.511 170.196 104.516 170.352 104.516H175.019C175.154 104.516 175.253 104.506 175.311 104.475C175.378 104.449 175.425 104.381 175.456 104.266H175.602V105.537H175.456C175.425 105.412 175.378 105.344 175.311 105.329C175.238 105.303 175.144 105.287 175.019 105.287H173.123V112.058C173.123 112.214 173.144 112.318 173.186 112.37C173.227 112.412 173.316 112.443 173.456 112.454V112.579H171.894V112.454C172.019 112.443 172.102 112.412 172.144 112.37C172.196 112.318 172.227 112.214 172.227 112.058V105.287H170.352C170.196 105.287 170.087 105.303 170.019 105.329C169.962 105.36 169.92 105.428 169.894 105.537H169.748V104.266Z" fill="black"/>
<path d="M186.231 104.266V105.537H186.106C186.075 105.412 186.023 105.344 185.939 105.329C185.866 105.303 185.773 105.287 185.648 105.287H182.002V108.079H184.377C184.528 108.079 184.632 108.068 184.689 108.037C184.757 108.011 184.804 107.933 184.835 107.808H184.96V109.183H184.835C184.804 109.032 184.762 108.943 184.71 108.912C184.653 108.87 184.549 108.85 184.398 108.85H182.002V111.829H185.773C185.908 111.829 186.012 111.818 186.085 111.787C186.153 111.761 186.2 111.683 186.231 111.558H186.356V112.87H186.231C186.2 112.745 186.153 112.662 186.085 112.62C186.028 112.589 185.924 112.579 185.773 112.579H180.773V112.454C180.908 112.443 181.002 112.412 181.043 112.37C181.085 112.318 181.106 112.204 181.106 112.037V105.058C181.106 104.907 181.085 104.803 181.043 104.745C181.002 104.693 180.908 104.662 180.773 104.662V104.516H185.648C185.799 104.516 185.903 104.506 185.96 104.475C186.028 104.449 186.075 104.381 186.106 104.266H186.231Z" fill="black"/>
<path d="M193.3 104.516V104.662C193.16 104.662 193.071 104.693 193.03 104.745C192.988 104.787 192.967 104.886 192.967 105.037V111.829H196.425C196.561 111.829 196.66 111.818 196.717 111.787C196.785 111.761 196.842 111.683 196.884 111.558H197.009V112.87H196.884C196.842 112.745 196.79 112.662 196.738 112.62C196.696 112.589 196.597 112.579 196.446 112.579H191.759V112.454C191.884 112.443 191.967 112.412 192.009 112.37C192.05 112.318 192.071 112.214 192.071 112.058V105.016C192.071 104.881 192.05 104.787 192.009 104.745C191.967 104.693 191.884 104.662 191.759 104.662V104.516H193.3Z" fill="black"/>
</svg>
