<svg width="270" height="113" viewBox="0 0 270 113" fill="none" xmlns="http://www.w3.org/2000/svg">
<mask id="mask0_1_187" style="mask-type:luminance" maskUnits="userSpaceOnUse" x="69" y="0" width="132" height="59">
<path d="M69 0.213562H201V58.3334H69V0.213562Z" fill="white"/>
</mask>
<g mask="url(#mask0_1_187)">
<path d="M129.656 28.5677C129.656 30.1146 130.542 32.5469 132.417 34.974C132.641 35.3125 132.865 35.5313 133.193 35.8646V39.5104C131.974 38.849 129.323 37.4115 126.229 36.7448C126.672 38.2917 126.12 39.6198 124.349 39.6198C123.021 39.6198 122.026 38.849 120.698 38.849C119.266 38.849 118.38 39.6198 118.38 40.5052C118.38 41.3906 118.495 42.3854 119.151 43.4896C118.932 43.4896 116.057 42.4948 116.057 40.5052C116.057 38.625 116.943 37.3021 118.271 36.5261C111.083 37.5208 105.333 40.9479 100.141 44.7083C100.359 46.3646 100.911 47.9115 101.687 49.125C101.906 46.5833 103.349 43.599 106.771 43.599C109.646 43.599 112.521 44.4844 113.182 48.7969C112.411 48.4636 111.531 48.1354 110.307 48.1354C109.318 48.1354 108.208 49.5677 108.208 50.6719C108.208 52.7761 110.203 54.875 113.516 54.875C122.026 54.875 124.464 48.4636 124.349 44.5938H125.677C125.677 53.4375 119.266 57.1979 113.516 57.1979C105.005 57.1979 100.031 52.4427 98.4844 45.9219C91.1823 51.3386 84.776 56.974 76.7031 56.974C73.1667 56.974 69.849 55.6511 69.849 51.6667C69.849 47.6927 72.2812 46.8073 74.2708 46.8073C76.5937 46.8073 78.3646 48.4636 78.3646 50.0104C78.3646 51.8906 76.4844 52.6667 75.375 52.224C75.9323 51.6667 76.151 51.1198 76.151 50.1198C76.151 49.2396 74.9375 48.1354 73.8281 48.1354C71.8437 48.1354 70.8437 49.6823 70.8437 51.6667C70.8437 54.2136 72.724 55.4271 75.375 55.4271C81.0156 55.4271 82.8906 43.9323 88.6406 43.9323C91.4062 43.9323 91.9635 46.0313 91.9635 46.8073C91.9635 47.4688 91.7344 49.125 91.7344 49.125C93.8385 47.6927 95.9375 46.0313 98.2604 44.2604C98.151 43.3802 98.0417 42.4948 98.0417 41.5C98.0417 40.8386 98.0417 40.0625 98.151 39.4011C93.0625 39.9531 90.7448 36.3021 90.7448 33.875C90.7448 31.4427 92.2917 29.6719 94.724 29.6719C96.2708 29.6719 97.4844 31.1094 97.4844 32.5469C97.4844 33.6511 97.0469 34.4271 95.7187 34.4271C94.724 34.4271 94.1719 33.5417 94.1719 32.9896C94.1719 31.6615 95.3854 31.7708 95.3854 31.3281C95.0573 30.8906 94.5052 31.1094 94.0573 31.1094C93.1771 31.1094 91.849 32.1042 91.849 33.6511C91.849 36.8542 95.0573 38.4063 98.3698 38.1823C99.9219 30.1146 107.214 25.4688 114.292 25.4688C120.036 25.4688 124.792 27.7917 128.995 31.5521C128.443 30.6667 127.995 29.4479 127.995 28.0156C127.995 26.2448 128.661 24.8073 130.208 24.8073C132.198 24.8073 133.193 26.1354 133.635 27.5677C131.646 26.9063 129.656 27.2396 129.656 28.5677ZM87.3125 50.2344C86.099 50.2344 84.6615 52.3333 83.0052 54.6563C84.1146 54.1042 86.875 52.6667 88.3073 51.4479C88.3073 50.8958 88.1979 50.2344 87.3125 50.2344ZM101.026 38.849C100.359 40.2865 100.031 41.724 100.031 42.9375C103.677 40.3958 107.656 37.849 112.302 36.1927C108.656 36.8542 104.339 37.9636 101.026 38.849ZM117.167 27.2396C117.938 28.125 118.047 28.2344 118.047 29.2292C118.047 30.8906 117.167 31.9948 114.625 31.9948C113.401 31.9948 112.188 31.5521 111.193 31.5521C106.995 31.5521 103.786 34.3177 101.906 37.3021C106.219 36.0833 112.411 34.3177 119.818 34.3177C119.375 33.9844 119.151 33.4271 119.151 32.6563C119.151 31.6615 119.599 30.8906 120.922 30.3333C120.813 32.3281 122.026 33.099 124.458 33.099C126.344 33.099 126.896 33.7604 126.896 34.6458L126.672 35.3125C128.995 35.974 131.536 36.8542 132.641 37.3021C127.333 31 122.25 27.349 117.167 27.2396ZM132.641 20.1667C132.417 19.2813 131.755 17.2917 130.651 17.2917C128.109 17.2917 125.786 19.0573 123.245 19.0573C121.365 19.0573 118.932 17.625 118.932 15.5208C118.932 14.6354 119.599 14.0886 120.479 13.974C120.37 14.3073 120.26 14.6354 120.26 14.9688C120.26 15.6302 120.698 16.1875 121.365 16.1875C123.573 16.1875 125.344 14.5261 127.552 14.5261C128.214 14.5261 128.88 14.75 129.542 14.9688C128.219 13.974 126.339 12.9792 124.682 12.6458C119.151 11.7604 111.969 8.77605 112.745 3.03126C112.964 1.15105 114.51 0.265636 115.839 0.489594C115.177 1.04168 114.51 1.47918 114.51 2.3698C114.51 5.57293 118.599 5.6823 120.922 5.6823C123.354 5.6823 128.443 5.13022 128.443 9.00001C128.443 10.3281 127.333 11.3229 126.12 11.5417C129.438 13.1979 132.75 15.4115 133.526 19.2813L132.641 20.1667ZM193 56.9792C184.927 56.9792 178.521 51.3386 171.224 45.9219C169.781 52.4427 164.703 57.1979 156.182 57.1979C150.547 57.1979 144.026 53.4375 144.026 44.5938H145.354C145.354 48.4636 147.781 54.875 156.182 54.875C159.505 54.875 161.495 52.7761 161.495 50.6719C161.495 49.5729 160.385 48.1354 159.396 48.1354C158.177 48.1354 157.292 48.4636 156.521 48.7969C157.182 44.4844 160.057 43.599 162.927 43.599C166.469 43.599 167.797 46.5833 168.016 49.1302C168.792 47.9115 169.344 46.3646 169.563 44.7083C164.37 40.9479 158.62 37.5208 151.438 36.5261C152.755 37.3021 153.646 38.625 153.646 40.5052C153.646 42.4948 150.771 43.4896 150.547 43.4896C151.208 42.3854 151.323 41.3906 151.323 40.5052C151.323 39.6198 150.547 38.849 149 38.849C147.672 38.849 146.682 39.6198 145.354 39.6198C143.583 39.6198 143.031 38.2917 143.474 36.7448C140.38 37.4115 137.724 38.849 136.51 39.5104V35.8646L137.391 34.9792C139.271 32.5469 140.047 30.1146 140.047 28.5677C140.047 27.2396 138.057 26.9063 136.068 27.5729C136.51 26.1354 137.505 24.8073 139.495 24.8073C141.042 24.8073 141.703 26.2448 141.703 28.0156C141.703 29.4531 141.26 30.6667 140.714 31.5521C145.021 27.7917 149.661 25.4688 155.411 25.4688C162.599 25.4688 169.781 30.1146 171.333 38.1823C174.646 38.4063 177.854 36.8594 177.854 33.6511C177.854 32.1042 176.635 31.1094 175.646 31.1094C175.198 31.1094 174.646 30.8906 174.318 31.3281C174.318 31.7708 175.531 31.6615 175.531 32.9896C175.531 33.5417 175.089 34.4271 173.984 34.4271C172.656 34.4271 172.214 33.6511 172.214 32.5469C172.214 31.1094 173.432 29.6719 174.979 29.6719C177.411 29.6719 178.958 31.4427 178.958 33.875C178.958 36.3073 176.635 39.9531 171.552 39.4011C171.661 40.0625 171.661 40.8386 171.661 41.5C171.661 42.4948 171.661 43.3802 171.552 44.2656C173.766 46.0365 175.969 47.6927 177.964 49.1302C177.964 49.1302 177.745 47.4688 177.745 46.8073C177.745 46.0365 178.406 43.9323 181.063 43.9323C186.807 43.9323 188.688 55.4271 194.323 55.4271C196.974 55.4271 198.859 54.2136 198.859 51.6719C198.859 49.6823 197.859 48.1354 195.87 48.1354C194.766 48.1354 193.552 49.2396 193.552 50.1198C193.552 51.1198 193.771 51.6719 194.323 52.224C193.219 52.6667 191.339 51.8906 191.339 50.0104C191.339 48.4636 193.219 46.8073 195.432 46.8073C197.417 46.8073 199.854 47.6927 199.854 51.6719C199.854 55.6458 196.536 56.9792 193 56.9792ZM145.021 12.6458C143.359 12.9792 141.484 13.974 140.161 14.9688C140.823 14.75 141.484 14.5261 142.146 14.5261C144.359 14.5261 146.13 16.1875 148.333 16.1875C149.109 16.1875 149.443 15.6354 149.443 14.9688C149.443 14.6354 149.443 14.3073 149.219 13.974C150.109 14.0886 150.771 14.6354 150.771 15.5208C150.771 17.625 148.448 19.0573 146.458 19.0573C143.917 19.0573 141.703 17.2917 139.052 17.2917C137.948 17.2917 137.286 19.2813 137.063 20.1667L136.177 19.2813C136.953 15.4115 140.266 13.1979 143.583 11.5417C142.365 11.3229 141.26 10.3229 141.26 9.00001C141.26 5.13022 146.458 5.6823 148.781 5.6823C151.104 5.6823 155.193 5.57293 155.193 2.3698C155.193 1.47918 154.641 1.04168 153.865 0.489594C155.193 0.265636 156.74 1.15105 156.958 3.03126C157.734 8.77605 150.547 11.7604 145.021 12.6458ZM158.505 31.5521C157.516 31.5521 156.297 31.9948 155.078 31.9948C152.651 31.9948 151.656 30.8906 151.656 29.2292C151.656 28.2344 151.875 28.125 152.536 27.2396C147.453 27.349 142.365 31 137.063 37.3021C138.167 36.8542 140.714 35.974 143.031 35.3073L142.813 34.6458C142.813 33.7604 143.359 33.099 145.24 33.099C147.672 33.099 148.891 32.3229 148.781 30.3333C150.109 30.8906 150.547 31.6615 150.547 32.6563C150.547 33.4271 150.328 33.9844 149.885 34.3177C157.292 34.3177 163.479 36.0833 167.901 37.3021C165.911 34.3177 162.708 31.5521 158.505 31.5521ZM168.677 38.849C165.365 37.9636 161.052 36.8542 157.406 36.1927C162.047 37.849 166.026 40.3958 169.677 42.9375C169.677 41.724 169.339 40.2865 168.677 38.849ZM182.385 50.2344C181.5 50.2344 181.396 50.8958 181.396 51.4479C182.828 52.6667 185.594 54.1042 186.693 54.6563C185.042 52.3333 183.599 50.2344 182.385 50.2344Z" fill="white"/>
</g>
<path d="M27.9323 59.8177C27.6198 58.5833 26.6979 55.8021 25.151 55.8021C21.599 55.8021 18.349 58.2761 14.8021 58.2761C12.1719 58.2761 8.76562 56.2656 8.76562 53.3281C8.76562 52.0885 9.69791 51.3229 10.9323 51.1615C10.7812 51.6302 10.625 52.0885 10.625 52.5573C10.625 53.4844 11.2396 54.2552 12.1719 54.2552C15.2552 54.2552 17.7344 51.9375 20.8229 51.9375C21.75 51.9375 22.6771 52.2448 23.6042 52.5573C21.75 51.1615 19.125 49.7708 16.8073 49.3125C9.07812 48.0729 -0.96355 43.901 0.114576 35.8646C0.421866 33.2396 2.58853 32.0052 4.4427 32.3125C3.51562 33.0833 2.58853 33.6979 2.58853 34.9375C2.58853 39.4219 8.30208 39.5729 11.5469 39.5729C14.9479 39.5729 22.0625 38.8021 22.0625 44.2135C22.0625 46.0625 20.5156 47.4583 18.8177 47.7656C23.4531 50.0833 28.0833 53.1719 29.1667 58.5833L27.9323 59.8177Z" fill="white"/>
<path d="M240.828 58.5833C241.911 53.1719 246.542 50.0833 251.177 47.7656C249.479 47.4583 247.932 46.0625 247.932 44.2135C247.932 38.8021 255.042 39.5729 258.448 39.5729C261.687 39.5729 267.406 39.4219 267.406 34.9375C267.406 33.6979 266.474 33.0833 265.552 32.3125C267.406 32.0052 269.573 33.2396 269.875 35.8646C270.958 43.901 260.917 48.0729 253.188 49.3125C250.87 49.7708 248.245 51.1615 246.391 52.5573C247.312 52.2448 248.245 51.9375 249.172 51.9375C252.255 51.9375 254.734 54.2552 257.823 54.2552C258.75 54.2552 259.37 53.4844 259.37 52.5573C259.37 52.0885 259.214 51.6302 259.063 51.1615C260.292 51.3229 261.224 52.0885 261.224 53.3281C261.224 56.2656 257.823 58.2761 255.193 58.2761C251.641 58.2761 248.396 55.8021 244.844 55.8021C243.297 55.8021 242.375 58.5833 242.057 59.8177L240.828 58.5833Z" fill="white"/>
<path d="M233.917 62.2917C230.557 64.7552 225.042 67.9844 206.802 66.1459C201.823 65.6511 196.891 64.8906 191.87 64.1302C188.734 63.6823 185.552 63.2761 182.37 62.9636C180.125 62.7396 174.479 62.1563 172.37 62.3802C170.172 62.6042 169.323 63.3646 169.276 63.7709C169.276 63.8594 169.234 64.0417 169.323 64.1302C169.37 64.3959 169.547 64.5781 169.547 64.7552C169.5 65.1615 168.469 65.5625 167.531 65.474C166.901 65.4271 166.276 65.0261 166.318 64.4844C166.406 63.9948 167.979 62.0677 171.745 61.5261C174.792 61.125 178.286 61.5261 190.255 62.6927C205.135 64.1719 215.135 64.2188 222.714 61.6615C228.271 59.8229 236.698 55.0729 237.5 48.3021C238.266 42.2552 232.932 39.3386 228.448 38.8906C219.172 37.9948 209.844 46.1563 209.13 51.8906C208.724 55.0729 211.458 56.8229 214.375 57.0938C217.469 57.4063 219.979 56.1511 222.172 54.5365C226.12 51.625 226.568 49.5156 226.698 48.5313C226.833 47.5 226.656 46.6459 226.161 46.0209C225.755 45.5261 225.448 45.4844 224.906 45.4375C224.682 45.4375 224.323 45.3906 224.37 45.0313C224.417 44.5417 224.906 44.5834 225.089 44.6302C226.568 44.7656 228.448 46.5573 228.089 49.5156C227.464 54.4011 221.276 58.5677 214.641 57.8959C209.219 57.3594 206.755 53.3698 207.245 49.5625C208.052 42.9271 217.734 36.4688 227.016 37.4115C235.354 38.2188 240.958 44.8959 240.057 52.4271C239.521 56.6875 237.193 59.8698 233.917 62.2917Z" fill="white"/>
<path d="M30.2292 53.0781C29.3281 45.5469 34.9323 38.8698 43.276 38.0625C52.5521 37.1198 62.2344 43.5781 63.0417 50.2083C63.5313 54.0208 61.0677 58.0104 55.6458 58.5469C49.0104 59.2188 42.8229 55.0521 42.1979 50.1667C41.8385 47.2083 43.7188 45.4115 45.1979 45.2813C45.3802 45.2344 45.875 45.1927 45.9167 45.6823C45.9635 46.0417 45.6042 46.0886 45.3802 46.0886C44.8438 46.1302 44.526 46.1771 44.125 46.6719C43.6302 47.2969 43.4531 48.151 43.5885 49.1771C43.7188 50.1667 44.1667 52.2708 48.1146 55.1875C50.3073 56.8021 52.8177 58.0573 55.9115 57.7396C58.8281 57.474 61.5625 55.724 61.1563 52.5417C60.4375 46.8021 51.1146 38.6458 41.8385 39.5417C37.3542 39.9896 32.0208 42.9063 32.7813 48.9531C33.5885 55.724 42.0156 60.474 47.5781 62.3125C55.151 64.8698 65.1458 64.8229 80.0313 63.3438C92 62.1771 95.4948 61.7761 98.5417 62.1771C102.307 62.7188 103.88 64.6458 103.969 65.1354C104.016 65.6771 103.385 66.0781 102.755 66.125C101.818 66.2135 100.786 65.8125 100.74 65.4063C100.74 65.2292 100.917 65.0469 100.964 64.7813C101.052 64.6875 101.01 64.5104 101.01 64.4219C100.964 64.0156 100.115 63.2552 97.9167 63.0313C95.8073 62.8073 90.1615 63.3906 87.9219 63.6146C84.7344 63.9271 81.5521 64.3333 78.4167 64.7813C73.3958 65.5417 68.4635 66.3021 63.4896 66.7969C45.2448 68.6354 39.7292 65.4063 36.3698 62.9427C33.099 60.5208 30.7656 57.3385 30.2292 53.0781Z" fill="white"/>
<path d="M29.8542 98.6875H240.146" stroke="white" stroke-width="2"/>
<mask id="mask1_1_187" style="mask-type:luminance" maskUnits="userSpaceOnUse" x="127" y="51" width="16" height="18">
<path d="M127.516 51.7917H142.469V68.6875H127.516V51.7917Z" fill="white"/>
</mask>
<g mask="url(#mask1_1_187)">
<path d="M142.469 59.8542C142.469 57.3438 141.234 55.125 139.339 53.7656C139.156 52.4219 137.943 51.7917 137.943 51.7917C138.323 52.2813 138.568 52.849 138.563 53.4636C138.552 54.3906 137.953 55.2292 137.198 55.7709C136.448 56.3073 135.547 56.599 134.667 56.8854C133.781 57.1719 132.885 57.4688 132.141 58.0209C131.422 58.5521 130.854 59.3959 130.958 60.2813C130.76 59.5313 130.594 58.7344 130.719 57.9584C130.849 57.1563 131.297 56.5677 131.943 56.1042C132.693 55.5365 133.641 55.1927 134.5 54.8177C135.214 54.5104 135.943 54.2448 136.625 53.8698C137.031 53.6511 137.422 53.3802 137.724 53.0261C137.75 52.9896 137.776 52.9584 137.802 52.9219C136.932 52.5729 135.984 52.375 134.995 52.375C130.865 52.375 127.516 55.724 127.516 59.8542C127.516 63.9479 130.807 67.2709 134.885 67.3281C134.177 66.375 133.25 65.599 132.505 64.6719C131.682 63.6511 131.068 62.3073 131.432 61.0469C131.708 60.0938 132.344 59.4531 133.219 58.9844C134.089 58.5156 135.125 58.3542 136.052 58.0104C136.979 57.6667 138.328 57.3386 138.625 56.2604C138.823 57.1459 138.276 57.9375 137.542 58.4584C136.802 58.9792 135.88 59.3386 135.057 59.7084C134.229 60.0781 133.411 60.625 133.089 61.4688C132.745 62.3594 133.036 63.3802 133.516 64.2031C134 65.0313 134.656 65.7448 135.13 66.5729C135.453 67.1459 135.682 67.8125 135.672 68.4584C135.677 68.5417 135.672 68.6146 135.661 68.6875C135.661 68.6875 135.99 68.1823 135.813 67.2865C139.557 66.875 142.469 63.7031 142.469 59.8542Z" fill="white"/>
</g>
<path d="M99.9204 71.6058V71.8974C99.6288 71.9131 99.4309 71.9756 99.3371 72.0849C99.2538 72.1995 99.2121 72.4131 99.2121 72.7308V80.2933C99.8788 79.5329 100.525 78.7933 101.15 78.0849C101.785 77.3766 102.368 76.7204 102.9 76.1058C103.441 75.4964 103.931 74.9495 104.379 74.4599C104.821 73.9599 105.181 73.5381 105.462 73.1891C105.655 72.9704 105.806 72.7933 105.92 72.6683C106.03 72.5433 106.108 72.4391 106.15 72.3558C106.202 72.2724 106.238 72.2204 106.254 72.1891C106.28 72.1631 106.295 72.1266 106.295 72.0849C106.295 71.9599 106.202 71.8974 106.025 71.8974V71.6058H109.42V71.8974C109.264 71.9287 109.118 71.9756 108.983 72.0433C108.858 72.1162 108.733 72.1995 108.608 72.2933C108.483 72.3922 108.342 72.5172 108.191 72.6683C108.051 72.8089 107.884 72.9808 107.691 73.1891L103.066 78.5016L108.941 87.8766C109.15 88.2256 109.321 88.4704 109.462 88.6058C109.613 88.7308 109.801 88.7933 110.025 88.7933V89.0849H106.712V88.7933C106.973 88.7933 107.108 88.7204 107.108 88.5641C107.108 88.4808 107.051 88.3506 106.941 88.1683L104.608 84.4808C104.051 83.5954 103.535 82.7672 103.066 82.0016C102.592 81.2256 102.17 80.5329 101.795 79.9183L99.2121 82.9183V87.9391C99.2121 88.262 99.2538 88.4808 99.3371 88.6058C99.4204 88.7204 99.6131 88.7829 99.9204 88.7933V89.0849H96.5663V88.7933C96.8579 88.7829 97.0506 88.7204 97.1496 88.6058C97.2434 88.4964 97.2954 88.2829 97.2954 87.9599V72.7308C97.2954 72.4391 97.2434 72.2308 97.1496 72.1058C97.0663 71.9808 96.8684 71.9131 96.5663 71.8974V71.6058H99.9204Z" fill="white"/>
<path d="M117.536 74.4391V74.7308C117.286 74.762 117.119 74.8141 117.036 74.8975C116.953 74.9704 116.911 75.1214 116.911 75.3558V88.1683C116.911 88.4183 116.953 88.5797 117.036 88.6475C117.119 88.7204 117.286 88.7672 117.536 88.7933V89.085H114.661V88.7933C114.895 88.7672 115.057 88.7256 115.14 88.6683C115.234 88.6006 115.286 88.4339 115.286 88.1683V75.3558C115.286 75.1214 115.244 74.9704 115.161 74.8975C115.078 74.8141 114.911 74.762 114.661 74.7308V74.4391H117.536Z" fill="white"/>
<path d="M128.607 81.21C130.867 81.21 132.003 80.3245 132.003 78.5433C132.003 77.6839 131.67 77.0172 131.003 76.5433C130.347 76.0745 129.487 75.835 128.42 75.835H125.107V81.21H128.607ZM128.982 74.4391C129.701 74.4391 130.347 74.5433 130.92 74.7516C131.503 74.96 131.992 75.262 132.399 75.6475C132.8 76.0381 133.107 76.4912 133.315 77.0016C133.534 77.5172 133.649 78.085 133.649 78.71C133.649 79.6579 133.378 80.4756 132.836 81.1683C132.305 81.8506 131.534 82.2881 130.524 82.4808L133.357 88.085C133.482 88.3506 133.612 88.5329 133.753 88.6266C133.904 88.7256 134.107 88.7881 134.357 88.8141V89.085H131.524V88.7933C131.701 88.7412 131.795 88.6422 131.795 88.5016C131.795 88.4756 131.779 88.4287 131.753 88.3558C131.722 88.2881 131.67 88.1787 131.586 88.0225C131.43 87.762 131.232 87.4079 130.982 86.96C130.742 86.5016 130.43 85.8922 130.045 85.1266C129.696 84.46 129.409 83.9079 129.19 83.46C128.982 83.0172 128.841 82.7308 128.774 82.6058H125.107V88.1683C125.107 88.3766 125.133 88.5329 125.19 88.6266C125.242 88.71 125.378 88.7672 125.586 88.7933V89.085H122.982V88.7933C123.19 88.7672 123.321 88.71 123.378 88.6266C123.43 88.5329 123.461 88.3766 123.461 88.1683V75.3558C123.461 75.1475 123.43 75.0016 123.378 74.9183C123.321 74.8245 123.19 74.762 122.982 74.7308V74.4391H128.982Z" fill="white"/>
<path d="M141.392 74.4391V74.7308C141.142 74.762 140.975 74.8141 140.892 74.8975C140.808 74.9704 140.767 75.1214 140.767 75.3558V88.1683C140.767 88.4183 140.808 88.5797 140.892 88.6475C140.975 88.7204 141.142 88.7672 141.392 88.7933V89.085H138.517V88.7933C138.751 88.7672 138.913 88.7256 138.996 88.6683C139.09 88.6006 139.142 88.4339 139.142 88.1683V75.3558C139.142 75.1214 139.1 74.9704 139.017 74.8975C138.933 74.8141 138.767 74.762 138.517 74.7308V74.4391H141.392Z" fill="white"/>
<path d="M152.338 74.21C153.296 74.21 154.135 74.3766 154.859 74.71C155.593 75.0329 156.218 75.3975 156.734 75.8141C156.843 75.8975 156.947 75.9808 157.046 76.0641C157.156 76.1475 157.223 76.1891 157.255 76.1891C157.307 76.1891 157.38 76.1579 157.463 76.085L157.671 76.2308L156.213 78.085L156.005 77.9391V77.7516C156.005 77.5173 155.906 77.2725 155.713 77.0225C155.515 76.7725 155.255 76.5433 154.921 76.335C154.588 76.1162 154.203 75.9391 153.775 75.8141C153.343 75.6787 152.89 75.6058 152.421 75.6058C151.614 75.6058 150.921 75.8089 150.338 76.21C149.755 76.6006 149.265 77.1006 148.88 77.71C148.505 78.3089 148.218 78.96 148.025 79.6683C147.843 80.3662 147.755 81.0225 147.755 81.6475C147.755 82.4964 147.859 83.3037 148.067 84.0641C148.275 84.8141 148.572 85.4808 148.963 86.0641C149.364 86.637 149.843 87.0954 150.4 87.4391C150.968 87.7725 151.614 87.9391 152.338 87.9391C152.838 87.9391 153.317 87.8714 153.775 87.7308C154.244 87.5798 154.661 87.3923 155.025 87.1683C155.385 86.9495 155.671 86.71 155.88 86.46C156.098 86.1995 156.213 85.9495 156.213 85.71C156.213 85.6423 156.197 85.5641 156.171 85.4808C156.14 85.387 156.114 85.2881 156.088 85.1891L156.255 85.0433L157.734 86.8975L157.588 87.0225H157.463C157.338 87.0225 157.203 87.0798 157.067 87.1891C156.942 87.3037 156.718 87.4964 156.4 87.7725C155.744 88.3454 155.088 88.7464 154.421 88.9808C153.755 89.2152 153.057 89.335 152.338 89.335C151.348 89.335 150.468 89.1318 149.692 88.7308C148.927 88.3298 148.281 87.7881 147.755 87.1058C147.223 86.4287 146.822 85.6266 146.546 84.71C146.265 83.7933 146.13 82.8141 146.13 81.7725C146.13 80.7464 146.265 79.7725 146.546 78.8558C146.838 77.9287 147.244 77.1214 147.775 76.4391C148.317 75.7464 148.968 75.2048 149.734 74.8141C150.51 74.4131 151.38 74.21 152.338 74.21Z" fill="white"/>
<path d="M163.019 81.7725C163.019 82.4704 163.107 83.1839 163.289 83.9183C163.482 84.6423 163.769 85.3089 164.144 85.9183C164.529 86.5173 165.024 87.0016 165.623 87.3766C166.232 87.7516 166.967 87.9391 167.831 87.9391C168.633 87.9391 169.342 87.762 169.956 87.3975C170.565 87.0381 171.065 86.5641 171.456 85.9808C171.842 85.3975 172.133 84.7412 172.331 84.0016C172.524 83.2673 172.623 82.5225 172.623 81.7725C172.623 81.0381 172.524 80.3037 172.331 79.5641C172.133 78.8298 171.842 78.1683 171.456 77.585C171.065 77.0016 170.565 76.5329 169.956 76.1683C169.342 75.7933 168.623 75.6058 167.789 75.6058C166.956 75.6058 166.237 75.7933 165.644 76.1683C165.045 76.5329 164.55 77.012 164.164 77.6058C163.774 78.1891 163.482 78.8506 163.289 79.585C163.107 80.3245 163.019 81.0537 163.019 81.7725ZM167.831 74.21C168.857 74.21 169.774 74.4339 170.581 74.8766C171.383 75.3089 172.06 75.8766 172.602 76.585C173.144 77.2829 173.55 78.085 173.831 79.0016C174.107 79.9183 174.248 80.8454 174.248 81.7725C174.248 82.6631 174.112 83.5589 173.852 84.46C173.586 85.3506 173.185 86.1579 172.644 86.8766C172.112 87.6006 171.446 88.1891 170.644 88.6475C169.836 89.1058 168.899 89.335 167.831 89.335C166.748 89.335 165.8 89.1058 164.998 88.6475C164.206 88.1891 163.539 87.6006 162.998 86.8766C162.467 86.1579 162.065 85.3506 161.789 84.46C161.524 83.5589 161.394 82.6631 161.394 81.7725C161.394 80.8454 161.529 79.9287 161.81 79.0225C162.086 78.1214 162.487 77.3141 163.019 76.6058C163.56 75.887 164.227 75.3089 165.019 74.8766C165.821 74.4339 166.758 74.21 167.831 74.21Z" fill="white"/>
<path d="M76.5774 108.266C77.2129 108.266 77.6712 108.157 77.9524 107.933C78.2285 107.714 78.3691 107.329 78.3691 106.787C78.3691 106.261 78.2024 105.881 77.8691 105.641C77.5462 105.407 77.0983 105.287 76.5149 105.287H74.8899V108.266H76.5774ZM76.5358 104.516C76.9629 104.516 77.3483 104.574 77.6816 104.683C78.0254 104.798 78.3118 104.954 78.5358 105.162C78.7702 105.36 78.942 105.594 79.0566 105.87C79.1816 106.152 79.2441 106.454 79.2441 106.787C79.2441 107.553 79.0202 108.115 78.5774 108.475C78.1295 108.839 77.4577 109.016 76.5566 109.016H74.8899V112.037C74.8899 112.193 74.9004 112.298 74.9316 112.35C74.9733 112.407 75.067 112.443 75.2233 112.454V112.579H73.6608V112.454C73.8118 112.443 73.9004 112.407 73.9316 112.35C73.9733 112.282 73.9941 112.173 73.9941 112.016V105.079C73.9941 104.928 73.9733 104.824 73.9316 104.766C73.9004 104.699 73.8118 104.662 73.6608 104.662V104.516H76.5358Z" fill="white"/>
<path d="M87.1262 105.12L85.897 109.433H88.397L87.147 105.12H87.1262ZM88.1053 104.516V104.662C87.9908 104.678 87.9387 104.725 87.9387 104.808C87.9387 104.85 87.9595 104.949 88.0012 105.1C88.0533 105.256 88.147 105.516 88.272 105.891C88.3814 106.282 88.4908 106.652 88.6053 106.995C88.6887 107.303 88.772 107.61 88.8553 107.912C88.9491 108.219 89.0324 108.469 89.1053 108.662C89.1574 108.902 89.2408 109.204 89.3553 109.579C89.4647 109.943 89.5741 110.303 89.6887 110.662C89.8137 111.068 89.9387 111.49 90.0637 111.933C90.0741 112.016 90.0897 112.089 90.1053 112.141C90.1314 112.199 90.1522 112.245 90.1678 112.287C90.1939 112.329 90.2303 112.365 90.272 112.391C90.3137 112.407 90.3658 112.428 90.4387 112.454V112.579H89.0637V112.454C89.1314 112.454 89.1783 112.449 89.2095 112.433C89.2355 112.423 89.2512 112.386 89.2512 112.329C89.2512 112.303 89.2355 112.261 89.2095 112.204C89.1939 112.136 89.1783 112.058 89.1678 111.975L88.6262 110.183H85.6678C85.5012 110.766 85.3605 111.245 85.2512 111.62C85.1366 111.985 85.0845 112.204 85.0845 112.287C85.0845 112.344 85.1053 112.386 85.147 112.412C85.1991 112.428 85.2564 112.443 85.3137 112.454V112.579H84.0012V112.454C84.1105 112.412 84.1783 112.365 84.2095 112.308C84.2512 112.24 84.2928 112.131 84.3345 111.975C84.5116 111.407 84.6678 110.886 84.7928 110.412C84.8449 110.219 84.9022 110.027 84.9595 109.829C85.0116 109.62 85.0689 109.433 85.1262 109.266C85.1783 109.1 85.2199 108.954 85.2512 108.829C85.2928 108.704 85.3189 108.62 85.3345 108.579C85.3449 108.537 85.3658 108.469 85.397 108.37C85.423 108.261 85.4491 108.141 85.4803 108.016C85.522 107.881 85.5637 107.735 85.6053 107.579C85.6574 107.412 85.7095 107.256 85.7512 107.1C85.8605 106.74 85.9803 106.344 86.1053 105.912C86.1991 105.61 86.2772 105.36 86.3345 105.162C86.3866 104.969 86.4178 104.86 86.4178 104.829C86.4178 104.719 86.3553 104.662 86.2303 104.662V104.516H88.1053Z" fill="white"/>
<path d="M97.1749 104.516V104.662C97.0343 104.662 96.9458 104.693 96.9041 104.745C96.8624 104.787 96.8416 104.886 96.8416 105.037V111.829H100.3C100.435 111.829 100.534 111.818 100.592 111.787C100.659 111.761 100.717 111.683 100.758 111.558H100.883V112.87H100.758C100.717 112.745 100.665 112.662 100.612 112.62C100.571 112.589 100.472 112.579 100.321 112.579H95.6333V112.454C95.7583 112.443 95.8416 112.412 95.8833 112.37C95.9249 112.318 95.9458 112.214 95.9458 112.058V105.016C95.9458 104.881 95.9249 104.787 95.8833 104.745C95.8416 104.693 95.7583 104.662 95.6333 104.662V104.516H97.1749Z" fill="white"/>
<path d="M111.47 104.266V105.537H111.345C111.314 105.412 111.262 105.344 111.179 105.329C111.106 105.303 111.012 105.287 110.887 105.287H107.241V108.079H109.616C109.767 108.079 109.871 108.068 109.929 108.037C109.996 108.011 110.043 107.933 110.074 107.808H110.199V109.183H110.074C110.043 109.032 110.002 108.943 109.949 108.912C109.892 108.87 109.788 108.85 109.637 108.85H107.241V111.829H111.012C111.147 111.829 111.252 111.818 111.324 111.787C111.392 111.761 111.439 111.683 111.47 111.558H111.595V112.87H111.47C111.439 112.745 111.392 112.662 111.324 112.62C111.267 112.589 111.163 112.579 111.012 112.579H106.012V112.454C106.147 112.443 106.241 112.412 106.283 112.37C106.324 112.318 106.345 112.204 106.345 112.037V105.058C106.345 104.907 106.324 104.803 106.283 104.745C106.241 104.693 106.147 104.662 106.012 104.662V104.516H110.887C111.038 104.516 111.142 104.506 111.199 104.475C111.267 104.449 111.314 104.381 111.345 104.266H111.47Z" fill="white"/>
<path d="M119.894 104.412C120.269 104.412 120.608 104.475 120.915 104.6C121.233 104.725 121.498 104.85 121.707 104.975C121.774 105.016 121.842 105.068 121.915 105.12C121.983 105.162 122.05 105.204 122.123 105.245C122.191 105.287 122.248 105.324 122.29 105.35C122.342 105.381 122.378 105.391 122.394 105.391C122.446 105.391 122.498 105.386 122.54 105.37L122.602 105.412L121.811 106.6L121.707 106.516C121.733 106.449 121.748 106.365 121.748 106.266C121.748 106.199 121.696 106.1 121.602 105.975C121.503 105.85 121.373 105.735 121.207 105.62C121.04 105.495 120.832 105.391 120.582 105.308C120.342 105.214 120.087 105.162 119.811 105.162C119.352 105.162 118.967 105.277 118.665 105.495C118.373 105.719 118.134 105.995 117.957 106.329C117.774 106.652 117.644 107.011 117.561 107.412C117.477 107.818 117.436 108.199 117.436 108.558C117.436 108.949 117.477 109.35 117.561 109.766C117.654 110.173 117.795 110.532 117.977 110.85C118.154 111.173 118.394 111.433 118.686 111.641C118.988 111.839 119.363 111.933 119.811 111.933C120.061 111.933 120.295 111.902 120.519 111.829C120.753 111.761 120.962 111.673 121.144 111.558C121.321 111.433 121.467 111.298 121.582 111.141C121.691 110.99 121.748 110.839 121.748 110.683V110.454L121.832 110.391L122.707 111.495L122.623 111.537H122.602C122.587 111.537 122.571 111.537 122.561 111.537C122.561 111.537 122.55 111.537 122.54 111.537C122.467 111.537 122.378 111.579 122.269 111.662C122.17 111.745 122.071 111.829 121.977 111.912C121.654 112.162 121.332 112.36 120.998 112.495C120.675 112.62 120.316 112.683 119.915 112.683C119.342 112.683 118.842 112.579 118.415 112.37C117.998 112.162 117.649 111.87 117.373 111.495C117.108 111.12 116.904 110.683 116.769 110.183C116.628 109.683 116.561 109.141 116.561 108.558C116.561 107.975 116.628 107.433 116.769 106.933C116.904 106.433 117.108 105.995 117.373 105.62C117.649 105.245 117.998 104.954 118.415 104.745C118.832 104.527 119.321 104.412 119.894 104.412Z" fill="white"/>
<path d="M133.443 104.266V105.537H133.318C133.287 105.412 133.234 105.344 133.151 105.329C133.078 105.303 132.984 105.287 132.859 105.287H129.214V108.079H131.589C131.74 108.079 131.844 108.068 131.901 108.037C131.969 108.011 132.016 107.933 132.047 107.808H132.172V109.183H132.047C132.016 109.032 131.974 108.943 131.922 108.912C131.865 108.87 131.76 108.85 131.609 108.85H129.214V111.829H132.984C133.12 111.829 133.224 111.818 133.297 111.787C133.365 111.761 133.412 111.683 133.443 111.558H133.568V112.87H133.443C133.412 112.745 133.365 112.662 133.297 112.62C133.24 112.589 133.135 112.579 132.984 112.579H127.984V112.454C128.12 112.443 128.214 112.412 128.255 112.37C128.297 112.318 128.318 112.204 128.318 112.037V105.058C128.318 104.907 128.297 104.803 128.255 104.745C128.214 104.693 128.12 104.662 127.984 104.662V104.516H132.859C133.01 104.516 133.115 104.506 133.172 104.475C133.24 104.449 133.287 104.381 133.318 104.266H133.443Z" fill="white"/>
<path d="M148.139 104.516V104.662C147.998 104.662 147.91 104.693 147.868 104.745C147.827 104.803 147.806 104.902 147.806 105.037V108.079H151.764V105.058C151.764 104.923 151.743 104.824 151.702 104.766C151.66 104.699 151.566 104.662 151.431 104.662V104.516H152.972V104.662C152.847 104.662 152.754 104.693 152.702 104.745C152.66 104.803 152.639 104.902 152.639 105.037V112.058C152.639 112.214 152.66 112.318 152.702 112.37C152.754 112.412 152.847 112.443 152.972 112.454V112.579H151.431V112.454C151.556 112.443 151.639 112.412 151.681 112.37C151.733 112.318 151.764 112.214 151.764 112.058V108.85H147.806V112.058C147.806 112.214 147.827 112.318 147.868 112.37C147.91 112.412 147.998 112.443 148.139 112.454V112.579H146.577V112.454C146.712 112.443 146.806 112.412 146.847 112.37C146.889 112.318 146.91 112.214 146.91 112.058V105.037C146.91 104.912 146.889 104.824 146.847 104.766C146.816 104.699 146.728 104.662 146.577 104.662V104.516H148.139Z" fill="white"/>
<path d="M159.226 108.558C159.226 109.016 159.273 109.454 159.372 109.87C159.466 110.277 159.612 110.636 159.81 110.954C160.018 111.261 160.273 111.506 160.581 111.683C160.898 111.85 161.268 111.933 161.685 111.933C162.101 111.933 162.461 111.85 162.768 111.683C163.07 111.506 163.32 111.261 163.518 110.954C163.726 110.652 163.878 110.287 163.976 109.87C164.07 109.454 164.122 109.016 164.122 108.558C164.122 108.157 164.081 107.756 163.997 107.35C163.914 106.949 163.773 106.589 163.581 106.266C163.398 105.933 163.148 105.673 162.831 105.475C162.523 105.266 162.133 105.162 161.664 105.162C161.216 105.162 160.836 105.261 160.518 105.454C160.211 105.652 159.961 105.912 159.768 106.245C159.586 106.568 159.445 106.928 159.351 107.329C159.268 107.719 159.226 108.131 159.226 108.558ZM161.685 104.412C162.253 104.412 162.747 104.537 163.164 104.787C163.581 105.027 163.924 105.339 164.206 105.725C164.482 106.115 164.685 106.558 164.81 107.058C164.945 107.548 165.018 108.048 165.018 108.558C165.018 109.058 164.945 109.553 164.81 110.037C164.685 110.527 164.482 110.969 164.206 111.37C163.924 111.761 163.581 112.079 163.164 112.329C162.747 112.568 162.253 112.683 161.685 112.683C161.112 112.683 160.622 112.568 160.206 112.329C159.789 112.094 159.44 111.782 159.164 111.391C158.883 111.006 158.674 110.558 158.539 110.058C158.414 109.558 158.351 109.058 158.351 108.558C158.351 108.048 158.414 107.548 158.539 107.058C158.674 106.558 158.883 106.115 159.164 105.725C159.44 105.339 159.789 105.027 160.206 104.787C160.622 104.537 161.112 104.412 161.685 104.412Z" fill="white"/>
<path d="M169.748 104.266H169.894C169.92 104.391 169.962 104.469 170.019 104.495C170.087 104.511 170.196 104.516 170.352 104.516H175.019C175.154 104.516 175.253 104.506 175.311 104.475C175.378 104.449 175.425 104.381 175.456 104.266H175.602V105.537H175.456C175.425 105.412 175.378 105.344 175.311 105.329C175.238 105.303 175.144 105.287 175.019 105.287H173.123V112.058C173.123 112.214 173.144 112.318 173.186 112.37C173.227 112.412 173.316 112.443 173.456 112.454V112.579H171.894V112.454C172.019 112.443 172.102 112.412 172.144 112.37C172.196 112.318 172.227 112.214 172.227 112.058V105.287H170.352C170.196 105.287 170.087 105.303 170.019 105.329C169.962 105.36 169.92 105.428 169.894 105.537H169.748V104.266Z" fill="white"/>
<path d="M186.231 104.266V105.537H186.106C186.075 105.412 186.023 105.344 185.939 105.329C185.866 105.303 185.773 105.287 185.648 105.287H182.002V108.079H184.377C184.528 108.079 184.632 108.068 184.689 108.037C184.757 108.011 184.804 107.933 184.835 107.808H184.96V109.183H184.835C184.804 109.032 184.762 108.943 184.71 108.912C184.653 108.87 184.549 108.85 184.398 108.85H182.002V111.829H185.773C185.908 111.829 186.012 111.818 186.085 111.787C186.153 111.761 186.2 111.683 186.231 111.558H186.356V112.87H186.231C186.2 112.745 186.153 112.662 186.085 112.62C186.028 112.589 185.924 112.579 185.773 112.579H180.773V112.454C180.908 112.443 181.002 112.412 181.043 112.37C181.085 112.318 181.106 112.204 181.106 112.037V105.058C181.106 104.907 181.085 104.803 181.043 104.745C181.002 104.693 180.908 104.662 180.773 104.662V104.516H185.648C185.799 104.516 185.903 104.506 185.96 104.475C186.028 104.449 186.075 104.381 186.106 104.266H186.231Z" fill="white"/>
<path d="M193.3 104.516V104.662C193.16 104.662 193.071 104.693 193.03 104.745C192.988 104.787 192.967 104.886 192.967 105.037V111.829H196.425C196.561 111.829 196.66 111.818 196.717 111.787C196.785 111.761 196.842 111.683 196.884 111.558H197.009V112.87H196.884C196.842 112.745 196.79 112.662 196.738 112.62C196.696 112.589 196.597 112.579 196.446 112.579H191.759V112.454C191.884 112.443 191.967 112.412 192.009 112.37C192.05 112.318 192.071 112.214 192.071 112.058V105.016C192.071 104.881 192.05 104.787 192.009 104.745C191.967 104.693 191.884 104.662 191.759 104.662V104.516H193.3Z" fill="white"/>
</svg>
